<?xml version="1.0" encoding="UTF-8" standalone="no"?>
<svg
   width="2232"
   height="1790"
   viewBox="0 0 2232 1790"
   version="1.1"
   id="svg185"
   sodipodi:docname="pitch_new.svg"
   inkscape:version="1.3.2 (091e20e, 2023-11-25)"
   xmlns:inkscape="http://www.inkscape.org/namespaces/inkscape"
   xmlns:sodipodi="http://sodipodi.sourceforge.net/DTD/sodipodi-0.dtd"
   xmlns="http://www.w3.org/2000/svg"
   xmlns:svg="http://www.w3.org/2000/svg">
  <defs
     id="defs185" />
  <sodipodi:namedview
     id="namedview185"
     pagecolor="#ffffff"
     bordercolor="#000000"
     borderopacity="0.25"
     inkscape:showpageshadow="2"
     inkscape:pageopacity="0.0"
     inkscape:pagecheckerboard="0"
     inkscape:deskcolor="#d1d1d1"
     showgrid="false"
     inkscape:zoom="0.41804693"
     inkscape:cx="1199.6261"
     inkscape:cy="1359.8952"
     inkscape:window-width="1512"
     inkscape:window-height="916"
     inkscape:window-x="0"
     inkscape:window-y="38"
     inkscape:window-maximized="0"
     inkscape:current-layer="g185" />
  <g
     fill="none"
     fill-rule="evenodd"
     transform="translate(-101.5)"
     id="g185">
    <g
       transform="translate(0 57.927)"
       id="g12">
      <polygon
         fill="#01BA5C"
         fill-rule="nonzero"
         points="527.028 0 0 1732.074 2433 1732.074 1899.971 0"
         id="polygon1" />
      <polygon
         fill="#00AE55"
         points="207.778 1202.112 2216.367 1202.112 2287 1448.074 131 1448.074"
         id="polygon2" />
      <polygon
         fill="#01BA5C"
         points="258.98 1022.719 2165.28 1022.719 2217.888 1202.112 206.365 1202.112"
         id="polygon3" />
      <polygon
         fill="#00AE55"
         points="306.886 859.361 2119.917 859.361 2170.055 1022.719 258.055 1022.719"
         id="polygon4" />
      <polygon
         fill="#01BA5C"
         points="350.576 711.035 2074.885 711.035 2117.9 859.361 307.462 859.361"
         id="polygon5" />
      <polygon
         fill="#00AE55"
         points="387.793 575.739 2036.14 575.739 2075.578 711.035 351.459 711.035"
         id="polygon6" />
      <polygon
         fill="#01BA5C"
         points="424.133 452.468 2000.064 452.468 2036.433 575.739 389.395 575.739"
         id="polygon7" />
      <polygon
         fill="#00AE55"
         points="457.92 340.222 1970.335 340.222 2003.357 452.468 425.357 452.468"
         id="polygon8" />
      <polygon
         fill="#01BA5C"
         points="487.706 237.998 1937.524 237.998 1964.557 340.222 461.069 340.222"
         id="polygon9" />
      <polygon
         fill="#00AE55"
         fill-rule="nonzero"
         points="514.747 144.794 1914.915 144.794 1941.022 237.998 489.022 237.998"
         id="polygon10" />
      <polygon
         fill="#01BA5C"
         points="539.521 58.604 1887.269 58.604 1910.166 144.794 516.361 144.794"
         id="polygon11" />
      <polygon
         fill="#01BA5C"
         points="539.521 58.604 1887.269 58.604 1910.166 144.794 516.361 144.794"
         id="polygon12" />
    </g>
    <g
       transform="translate(1026.707)"
       id="g174">
      <polygon
         fill="#000"
         fill-rule="nonzero"
         points="0 0 29.95 57.605 344.424 57.605 374.374 0"
         opacity=".102"
         transform="translate(0 57.925)"
         id="polygon13" />
      <g
         transform="translate(32.479)"
         id="g173">
        <path
           fill="#CECECE"
           fill-rule="nonzero"
           d="M8.00343745,4.79867155 L15.2065311,8.90916728 L15.2065311,17.1301587 L8.00343745,21.2406545 L0.800343745,17.1301587 L0.800343745,8.90916728 L8.00343745,4.79867155 M8.00343745,3.79201954 L0,8.40584127 L0,17.6334847 L8.00343745,22.2473065 L16.0068749,17.6334847 L16.0068749,8.40584127 L8.00343745,3.79201954 L8.00343745,3.79201954 Z"
           id="path13" />
        <path
           fill="#CECECE"
           fill-rule="nonzero"
           d="M23.2099685,4.79867155 L30.4130623,8.90916728 L30.4130623,17.1301587 L23.2099685,21.2406545 L16.0068749,17.1301587 L16.0068749,8.90916728 L23.2099685,4.79867155 M23.2099685,3.79201954 L15.2065311,8.40584127 L15.2065311,17.6334847 L23.2099685,22.2473065 L31.213406,17.6334847 L31.213406,8.40584127 L23.2099685,3.79201954 L23.2099685,3.79201954 Z"
           id="path14" />
        <path
           fill="#CECECE"
           fill-rule="nonzero"
           d="M38.4164997,4.79867155 L45.6195934,8.90916728 L45.6195934,17.1301587 L38.4164997,21.2406545 L31.213406,17.1301587 L31.213406,8.90916728 L38.4164997,4.79867155 M38.4164997,3.79201954 L30.4130623,8.40584127 L30.4130623,17.6334847 L38.4164997,22.2473065 L46.4199372,17.6334847 L46.4199372,8.40584127 L38.4164997,3.79201954 L38.4164997,3.79201954 Z"
           id="path15" />
        <path
           fill="#CECECE"
           fill-rule="nonzero"
           d="M53.6230309,4.79867155 L60.8261246,8.90916728 L60.8261246,17.1301587 L53.6230309,21.2406545 L46.4199372,17.1301587 L46.4199372,8.90916728 L53.6230309,4.79867155 M53.6230309,3.79201954 L45.6195934,8.40584127 L45.6195934,17.6334847 L53.6230309,22.2473065 L61.6264683,17.6334847 L61.6264683,8.40584127 L53.6230309,3.79201954 L53.6230309,3.79201954 Z"
           id="path16" />
        <path
           fill="#CECECE"
           fill-rule="nonzero"
           d="M68.8295621,4.79867155 L76.0326557,8.90916728 L76.0326557,17.1301587 L68.8295621,21.2406545 L61.6264683,17.1301587 L61.6264683,8.90916728 L68.8295621,4.79867155 M68.8295621,3.79201954 L60.8261246,8.40584127 L60.8261246,17.6334847 L68.8295621,22.2473065 L76.8329996,17.6334847 L76.8329996,8.40584127 L68.8295621,3.79201954 L68.8295621,3.79201954 Z"
           id="path17" />
        <path
           fill="#CECECE"
           fill-rule="nonzero"
           d="M84.0360932,4.79867155 L91.2391869,8.90916728 L91.2391869,17.1301587 L84.0360932,21.2406545 L76.8329996,17.1301587 L76.8329996,8.90916728 L84.0360932,4.79867155 M84.0360932,3.79201954 L76.0326557,8.40584127 L76.0326557,17.6334847 L84.0360932,22.2473065 L92.0395306,17.6334847 L92.0395306,8.40584127 L84.0360932,3.79201954 L84.0360932,3.79201954 Z"
           id="path18" />
        <path
           fill="#CECECE"
           fill-rule="nonzero"
           d="M99.2426244,4.79867155 L106.445719,8.90916728 L106.445719,17.1301587 L99.2426244,21.2406545 L92.0395306,17.1301587 L92.0395306,8.90916728 L99.2426244,4.79867155 M99.2426244,3.79201954 L91.2391869,8.40584127 L91.2391869,17.6334847 L99.2426244,22.2473065 L107.246061,17.6334847 L107.246061,8.40584127 L99.2426244,3.79201954 L99.2426244,3.79201954 Z"
           id="path19" />
        <path
           fill="#CECECE"
           fill-rule="nonzero"
           d="M114.449155,4.79867155 L121.65225,8.90916728 L121.65225,17.1301587 L114.449155,21.2406545 L107.246061,17.1301587 L107.246061,8.90916728 L114.449155,4.79867155 M114.449155,3.79201954 L106.445719,8.40584127 L106.445719,17.6334847 L114.449155,22.2473065 L122.452594,17.6334847 L122.452594,8.40584127 L114.449155,3.79201954 L114.449155,3.79201954 Z"
           id="path20" />
        <path
           fill="#CECECE"
           fill-rule="nonzero"
           d="M129.655686,4.79867155 L136.85878,8.90916728 L136.85878,17.1301587 L129.655686,21.2406545 L122.452594,17.1301587 L122.452594,8.90916728 L129.655686,4.79867155 M129.655686,3.79201954 L121.65225,8.40584127 L121.65225,17.6334847 L129.655686,22.2473065 L137.659125,17.6334847 L137.659125,8.40584127 L129.655686,3.79201954 L129.655686,3.79201954 Z"
           id="path21" />
        <path
           fill="#CECECE"
           fill-rule="nonzero"
           d="M144.862218,4.79867155 L152.065311,8.90916728 L152.065311,17.1301587 L144.862218,21.2406545 L137.659125,17.1301587 L137.659125,8.90916728 L144.862218,4.79867155 M144.862218,3.79201954 L136.85878,8.40584127 L136.85878,17.6334847 L144.862218,22.2473065 L152.865655,17.6334847 L152.865655,8.40584127 L144.862218,3.79201954 L144.862218,3.79201954 Z"
           id="path22" />
        <path
           fill="#CECECE"
           fill-rule="nonzero"
           d="M160.068749,4.79867155 L167.271843,8.90916728 L167.271843,17.1301587 L160.068749,21.2406545 L152.865655,17.1301587 L152.865655,8.90916728 L160.068749,4.79867155 M160.068749,3.79201954 L152.065311,8.40584127 L152.065311,17.6334847 L160.068749,22.2473065 L168.072186,17.6334847 L168.072186,8.40584127 L160.068749,3.79201954 L160.068749,3.79201954 Z"
           id="path23" />
        <path
           fill="#CECECE"
           fill-rule="nonzero"
           d="M175.27528,4.79867155 L182.478374,8.90916728 L182.478374,17.1301587 L175.27528,21.2406545 L168.072186,17.1301587 L168.072186,8.90916728 L175.27528,4.79867155 M175.27528,3.79201954 L167.271843,8.40584127 L167.271843,17.6334847 L175.27528,22.2473065 L183.278718,17.6334847 L183.278718,8.40584127 L175.27528,3.79201954 L175.27528,3.79201954 Z"
           id="path24" />
        <path
           fill="#CECECE"
           fill-rule="nonzero"
           d="M190.48181,4.79867155 L197.684905,8.90916728 L197.684905,17.1301587 L190.48181,21.2406545 L183.278718,17.1301587 L183.278718,8.90916728 L190.48181,4.79867155 M190.48181,3.79201954 L182.478374,8.40584127 L182.478374,17.6334847 L190.48181,22.2473065 L198.485249,17.6334847 L198.485249,8.40584127 L190.48181,3.79201954 L190.48181,3.79201954 Z"
           id="path25" />
        <path
           fill="#CECECE"
           fill-rule="nonzero"
           d="M205.688343,4.79867155 L212.891436,8.90916728 L212.891436,17.1301587 L205.688343,21.2406545 L198.485249,17.1301587 L198.485249,8.90916728 L205.688343,4.79867155 M205.688343,3.79201954 L197.684905,8.40584127 L197.684905,17.6334847 L205.688343,22.2473065 L213.69178,17.6334847 L213.69178,8.40584127 L205.688343,3.79201954 L205.688343,3.79201954 Z"
           id="path26" />
        <path
           fill="#CECECE"
           fill-rule="nonzero"
           d="M220.894874,4.79867155 L228.097967,8.90916728 L228.097967,17.1301587 L220.894874,21.2406545 L213.69178,17.1301587 L213.69178,8.90916728 L220.894874,4.79867155 M220.894874,3.79201954 L212.891436,8.40584127 L212.891436,17.6334847 L220.894874,22.2473065 L228.898311,17.6334847 L228.898311,8.40584127 L220.894874,3.79201954 L220.894874,3.79201954 Z"
           id="path27" />
        <path
           fill="#CECECE"
           fill-rule="nonzero"
           d="M236.101405,4.79867155 L243.304498,8.90916728 L243.304498,17.1301587 L236.101405,21.2406545 L228.898311,17.1301587 L228.898311,8.90916728 L236.101405,4.79867155 M236.101405,3.79201954 L228.097967,8.40584127 L228.097967,17.6334847 L236.101405,22.2473065 L244.104842,17.6334847 L244.104842,8.40584127 L236.101405,3.79201954 L236.101405,3.79201954 Z"
           id="path28" />
        <path
           fill="#CECECE"
           fill-rule="nonzero"
           d="M251.307936,4.79867155 L258.511029,8.90916728 L258.511029,17.1301587 L251.307936,21.2406545 L244.104842,17.1301587 L244.104842,8.90916728 L251.307936,4.79867155 M251.307936,3.79201954 L243.304498,8.40584127 L243.304498,17.6334847 L251.307936,22.2473065 L259.311373,17.6334847 L259.311373,8.40584127 L251.307936,3.79201954 L251.307936,3.79201954 Z"
           id="path29" />
        <path
           fill="#CECECE"
           fill-rule="nonzero"
           d="M266.514467,4.79867155 L273.71756,8.90916728 L273.71756,17.1301587 L266.514467,21.2406545 L259.311373,17.1301587 L259.311373,8.90916728 L266.514467,4.79867155 M266.514467,3.79201954 L258.511029,8.40584127 L258.511029,17.6334847 L266.514467,22.2473065 L274.517904,17.6334847 L274.517904,8.40584127 L266.514467,3.79201954 L266.514467,3.79201954 Z"
           id="path30" />
        <path
           fill="#CECECE"
           fill-rule="nonzero"
           d="M281.720998,4.79867155 L288.924093,8.90916728 L288.924093,17.1301587 L281.720998,21.2406545 L274.517904,17.1301587 L274.517904,8.90916728 L281.720998,4.79867155 M281.720998,3.79201954 L273.71756,8.40584127 L273.71756,17.6334847 L281.720998,22.2473065 L289.724435,17.6334847 L289.724435,8.40584127 L281.720998,3.79201954 L281.720998,3.79201954 Z"
           id="path31" />
        <path
           fill="#CECECE"
           fill-rule="nonzero"
           d="M296.927529,4.79867155 L304.130623,8.90916728 L304.130623,17.1301587 L296.927529,21.2406545 L289.724435,17.1301587 L289.724435,8.90916728 L296.927529,4.79867155 M296.927529,3.79201954 L288.924093,8.40584127 L288.924093,17.6334847 L296.927529,22.2473065 L304.930967,17.6334847 L304.930967,8.40584127 L296.927529,3.79201954 L296.927529,3.79201954 Z"
           id="path32" />
        <g
           fill="#CECECE"
           fill-rule="nonzero"
           transform="translate(7.203 17.13)"
           id="g52">
          <path
             d="M8.40360932,1.09053968 L15.606703,5.20103541 L15.606703,13.4220269 L8.40360932,17.5325226 L1.20051561,13.4220269 L1.20051561,5.20103541 L8.40360932,1.09053968 M8.40360932,0.167775335 L0.400171872,4.78159707 L0.400171872,14.0092405 L8.40360932,18.6230622 L16.4070468,14.0092405 L16.4070468,4.78159707 L8.40360932,0.167775335 L8.40360932,0.167775335 Z"
             id="path33" />
          <path
             d="M23.6101405,1.09053968 L30.8132342,5.20103541 L30.8132342,13.4220269 L23.6101405,17.5325226 L16.4070468,13.4220269 L16.4070468,5.20103541 L23.6101405,1.09053968 M23.6101405,0.167775335 L15.606703,4.78159707 L15.606703,14.0092405 L23.6101405,18.6230622 L31.6135779,14.0092405 L31.6135779,4.78159707 L23.6101405,0.167775335 L23.6101405,0.167775335 Z"
             id="path34" />
          <path
             d="M38.8166717,1.09053968 L46.0197653,5.20103541 L46.0197653,13.4220269 L38.8166717,17.5325226 L31.6135779,13.4220269 L31.6135779,5.20103541 L38.8166717,1.09053968 M38.8166717,0.167775335 L30.8132342,4.78159707 L30.8132342,14.0092405 L38.8166717,18.6230622 L46.8201091,14.0092405 L46.8201091,4.78159707 L38.8166717,0.167775335 L38.8166717,0.167775335 Z"
             id="path35" />
          <path
             d="M54.0232027,1.09053968 L61.2262966,5.20103541 L61.2262966,13.4220269 L54.0232027,17.5325226 L46.8201091,13.4220269 L46.8201091,5.20103541 L54.0232027,1.09053968 M54.0232027,0.167775335 L46.0197653,4.78159707 L46.0197653,14.0092405 L54.0232027,18.6230622 L62.0266402,14.0092405 L62.0266402,4.78159707 L54.0232027,0.167775335 L54.0232027,0.167775335 Z"
             id="path36" />
          <path
             d="M69.2297339,1.09053968 L76.4328276,5.20103541 L76.4328276,13.4220269 L69.2297339,17.5325226 L62.0266402,13.4220269 L62.0266402,5.20103541 L69.2297339,1.09053968 M69.2297339,0.167775335 L61.2262966,4.78159707 L61.2262966,14.0092405 L69.2297339,18.6230622 L77.2331713,14.0092405 L77.2331713,4.78159707 L69.2297339,0.167775335 L69.2297339,0.167775335 Z"
             id="path37" />
          <path
             d="M84.4362651,1.09053968 L91.6393587,5.20103541 L91.6393587,13.4220269 L84.4362651,17.5325226 L77.2331713,13.4220269 L77.2331713,5.20103541 L84.4362651,1.09053968 M84.4362651,0.167775335 L76.4328276,4.78159707 L76.4328276,14.0092405 L84.4362651,18.6230622 L92.4397026,14.0092405 L92.4397026,4.78159707 L84.4362651,0.167775335 L84.4362651,0.167775335 Z"
             id="path38" />
          <path
             d="M99.6427962,1.09053968 L106.845889,5.20103541 L106.845889,13.4220269 L99.6427962,17.5325226 L92.4397026,13.4220269 L92.4397026,5.20103541 L99.6427962,1.09053968 M99.6427962,0.167775335 L91.6393587,4.78159707 L91.6393587,14.0092405 L99.6427962,18.6230622 L107.646233,14.0092405 L107.646233,4.78159707 L99.6427962,0.167775335 L99.6427962,0.167775335 Z"
             id="path39" />
          <path
             d="M114.849328,1.09053968 L122.052421,5.20103541 L122.052421,13.4220269 L114.849328,17.5325226 L107.646233,13.4220269 L107.646233,5.20103541 L114.849328,1.09053968 M114.849328,0.167775335 L106.845889,4.78159707 L106.845889,14.0092405 L114.849328,18.6230622 L122.852764,14.0092405 L122.852764,4.78159707 L114.849328,0.167775335 L114.849328,0.167775335 Z"
             id="path40" />
          <path
             d="M130.055859,1.09053968 L137.258953,5.20103541 L137.258953,13.4220269 L130.055859,17.5325226 L122.852764,13.4220269 L122.852764,5.20103541 L130.055859,1.09053968 M130.055859,0.167775335 L122.052421,4.78159707 L122.052421,14.0092405 L130.055859,18.6230622 L138.059296,14.0092405 L138.059296,4.78159707 L130.055859,0.167775335 L130.055859,0.167775335 Z"
             id="path41" />
          <path
             d="M145.262389,1.09053968 L152.465484,5.20103541 L152.465484,13.4220269 L145.262389,17.5325226 L138.059296,13.4220269 L138.059296,5.20103541 L145.262389,1.09053968 M145.262389,0.167775335 L137.258953,4.78159707 L137.258953,14.0092405 L145.262389,18.6230622 L153.265828,14.0092405 L153.265828,4.78159707 L145.262389,0.167775335 L145.262389,0.167775335 Z"
             id="path42" />
          <path
             d="M160.46892,1.09053968 L167.672015,5.20103541 L167.672015,13.4220269 L160.46892,17.5325226 L153.265828,13.4220269 L153.265828,5.20103541 L160.46892,1.09053968 M160.46892,0.167775335 L152.465484,4.78159707 L152.465484,14.0092405 L160.46892,18.6230622 L168.472359,14.0092405 L168.472359,4.78159707 L160.46892,0.167775335 L160.46892,0.167775335 Z"
             id="path43" />
          <path
             d="M175.675452,1.09053968 L182.878545,5.20103541 L182.878545,13.4220269 L175.675452,17.5325226 L168.472359,13.4220269 L168.472359,5.20103541 L175.675452,1.09053968 M175.675452,0.167775335 L167.672015,4.78159707 L167.672015,14.0092405 L175.675452,18.6230622 L183.67889,14.0092405 L183.67889,4.78159707 L175.675452,0.167775335 L175.675452,0.167775335 Z"
             id="path44" />
          <path
             d="M190.881983,1.09053968 L198.085077,5.20103541 L198.085077,13.4220269 L190.881983,17.5325226 L183.67889,13.4220269 L183.67889,5.20103541 L190.881983,1.09053968 M190.881983,0.167775335 L182.878545,4.78159707 L182.878545,14.0092405 L190.881983,18.6230622 L198.88542,14.0092405 L198.88542,4.78159707 L190.881983,0.167775335 L190.881983,0.167775335 Z"
             id="path45" />
          <path
             d="M206.088514,1.09053968 L213.291608,5.20103541 L213.291608,13.4220269 L206.088514,17.5325226 L198.88542,13.4220269 L198.88542,5.20103541 L206.088514,1.09053968 M206.088514,0.167775335 L198.085077,4.78159707 L198.085077,14.0092405 L206.088514,18.6230622 L214.091952,14.0092405 L214.091952,4.78159707 L206.088514,0.167775335 L206.088514,0.167775335 Z"
             id="path46" />
          <path
             d="M221.295046,1.09053968 L228.498139,5.20103541 L228.498139,13.4220269 L221.295046,17.5325226 L214.091952,13.4220269 L214.091952,5.20103541 L221.295046,1.09053968 M221.295046,0.167775335 L213.291608,4.78159707 L213.291608,14.0092405 L221.295046,18.6230622 L229.298483,14.0092405 L229.298483,4.78159707 L221.295046,0.167775335 L221.295046,0.167775335 Z"
             id="path47" />
          <path
             d="M236.501577,1.09053968 L243.70467,5.20103541 L243.70467,13.4220269 L236.501577,17.5325226 L229.298483,13.4220269 L229.298483,5.20103541 L236.501577,1.09053968 M236.501577,0.167775335 L228.498139,4.78159707 L228.498139,14.0092405 L236.501577,18.6230622 L244.505014,14.0092405 L244.505014,4.78159707 L236.501577,0.167775335 L236.501577,0.167775335 Z"
             id="path48" />
          <path
             d="M251.708108,1.09053968 L258.911202,5.20103541 L258.911202,13.4220269 L251.708108,17.5325226 L244.505014,13.4220269 L244.505014,5.20103541 L251.708108,1.09053968 M251.708108,0.167775335 L243.70467,4.78159707 L243.70467,14.0092405 L251.708108,18.6230622 L259.711545,14.0092405 L259.711545,4.78159707 L251.708108,0.167775335 L251.708108,0.167775335 Z"
             id="path49" />
          <path
             d="M266.914639,1.09053968 L274.117732,5.20103541 L274.117732,13.4220269 L266.914639,17.5325226 L259.711545,13.4220269 L259.711545,5.20103541 L266.914639,1.09053968 M266.914639,0.167775335 L258.911202,4.78159707 L258.911202,14.0092405 L266.914639,18.6230622 L274.918077,14.0092405 L274.918077,4.78159707 L266.914639,0.167775335 L266.914639,0.167775335 Z"
             id="path50" />
          <path
             d="M282.12117,1.09053968 L289.324263,5.20103541 L289.324263,13.4220269 L282.12117,17.5325226 L274.918077,13.4220269 L274.918077,5.20103541 L282.12117,1.09053968 M282.12117,0.167775335 L274.117732,4.78159707 L274.117732,14.0092405 L282.12117,18.6230622 L290.124607,14.0092405 L290.124607,4.78159707 L282.12117,0.167775335 L282.12117,0.167775335 Z"
             id="path51" />
          <path
             d="M297.327702,1.09053968 L304.530795,5.20103541 L304.530795,13.4220269 L297.327702,17.5325226 L290.124607,13.4220269 L290.124607,5.20103541 L297.327702,1.09053968 M297.327702,0.167775335 L289.324263,4.78159707 L289.324263,14.0092405 L297.327702,18.6230622 L305.331138,14.0092405 L305.331138,4.78159707 L297.327702,0.167775335 L297.327702,0.167775335 Z"
             id="path52" />
        </g>
        <g
           fill="#CECECE"
           fill-rule="nonzero"
           transform="translate(0 30.552)"
           id="g72">
          <path
             d="M8.00343745,1.25831502 L15.2065311,5.36881075 L15.2065311,13.5898022 L8.00343745,17.7002979 L0.800343745,13.5898022 L0.800343745,5.36881075 L8.00343745,1.25831502 M8.00343745,0.335550672 L0,4.94937241 L0,14.1770158 L8.00343745,18.7908376 L16.0068749,14.1770158 L16.0068749,4.94937241 L8.00343745,0.335550672 L8.00343745,0.335550672 Z"
             id="path53" />
          <path
             d="M23.2099685,1.25831502 L30.4130623,5.36881075 L30.4130623,13.5898022 L23.2099685,17.7002979 L16.0068749,13.5898022 L16.0068749,5.36881075 L23.2099685,1.25831502 M23.2099685,0.335550672 L15.2065311,4.94937241 L15.2065311,14.1770158 L23.2099685,18.7908376 L31.213406,14.1770158 L31.213406,4.94937241 L23.2099685,0.335550672 L23.2099685,0.335550672 Z"
             id="path54" />
          <path
             d="M38.4164997,1.25831502 L45.6195934,5.36881075 L45.6195934,13.5898022 L38.4164997,17.7002979 L31.213406,13.5898022 L31.213406,5.36881075 L38.4164997,1.25831502 M38.4164997,0.335550672 L30.4130623,4.94937241 L30.4130623,14.1770158 L38.4164997,18.7908376 L46.4199372,14.1770158 L46.4199372,4.94937241 L38.4164997,0.335550672 L38.4164997,0.335550672 Z"
             id="path55" />
          <path
             d="M53.6230309,1.25831502 L60.8261246,5.36881075 L60.8261246,13.5898022 L53.6230309,17.7002979 L46.4199372,13.5898022 L46.4199372,5.36881075 L53.6230309,1.25831502 M53.6230309,0.335550672 L45.6195934,4.94937241 L45.6195934,14.1770158 L53.6230309,18.7908376 L61.6264683,14.1770158 L61.6264683,4.94937241 L53.6230309,0.335550672 L53.6230309,0.335550672 Z"
             id="path56" />
          <path
             d="M68.8295621,1.25831502 L76.0326557,5.36881075 L76.0326557,13.5898022 L68.8295621,17.7002979 L61.6264683,13.5898022 L61.6264683,5.36881075 L68.8295621,1.25831502 M68.8295621,0.335550672 L60.8261246,4.94937241 L60.8261246,14.1770158 L68.8295621,18.7908376 L76.8329996,14.1770158 L76.8329996,4.94937241 L68.8295621,0.335550672 L68.8295621,0.335550672 Z"
             id="path57" />
          <path
             d="M84.0360932,1.25831502 L91.2391869,5.36881075 L91.2391869,13.5898022 L84.0360932,17.7002979 L76.8329996,13.5898022 L76.8329996,5.36881075 L84.0360932,1.25831502 M84.0360932,0.335550672 L76.0326557,4.94937241 L76.0326557,14.1770158 L84.0360932,18.7908376 L92.0395306,14.1770158 L92.0395306,4.94937241 L84.0360932,0.335550672 L84.0360932,0.335550672 Z"
             id="path58" />
          <path
             d="M99.2426244,1.25831502 L106.445719,5.36881075 L106.445719,13.5898022 L99.2426244,17.7002979 L92.0395306,13.5898022 L92.0395306,5.36881075 L99.2426244,1.25831502 M99.2426244,0.335550672 L91.2391869,4.94937241 L91.2391869,14.1770158 L99.2426244,18.7908376 L107.246061,14.1770158 L107.246061,4.94937241 L99.2426244,0.335550672 L99.2426244,0.335550672 Z"
             id="path59" />
          <path
             d="M114.449155,1.25831502 L121.65225,5.36881075 L121.65225,13.5898022 L114.449155,17.7002979 L107.246061,13.5898022 L107.246061,5.36881075 L114.449155,1.25831502 M114.449155,0.335550672 L106.445719,4.94937241 L106.445719,14.1770158 L114.449155,18.7908376 L122.452594,14.1770158 L122.452594,4.94937241 L114.449155,0.335550672 L114.449155,0.335550672 Z"
             id="path60" />
          <path
             d="M129.655686,1.25831502 L136.85878,5.36881075 L136.85878,13.5898022 L129.655686,17.7002979 L122.452594,13.5898022 L122.452594,5.36881075 L129.655686,1.25831502 M129.655686,0.335550672 L121.65225,4.94937241 L121.65225,14.1770158 L129.655686,18.7908376 L137.659125,14.1770158 L137.659125,4.94937241 L129.655686,0.335550672 L129.655686,0.335550672 Z"
             id="path61" />
          <path
             d="M144.862218,1.25831502 L152.065311,5.36881075 L152.065311,13.5898022 L144.862218,17.7002979 L137.659125,13.5898022 L137.659125,5.36881075 L144.862218,1.25831502 M144.862218,0.335550672 L136.85878,4.94937241 L136.85878,14.1770158 L144.862218,18.7908376 L152.865655,14.1770158 L152.865655,4.94937241 L144.862218,0.335550672 L144.862218,0.335550672 Z"
             id="path62" />
          <path
             d="M160.068749,1.25831502 L167.271843,5.36881075 L167.271843,13.5898022 L160.068749,17.7002979 L152.865655,13.5898022 L152.865655,5.36881075 L160.068749,1.25831502 M160.068749,0.335550672 L152.065311,4.94937241 L152.065311,14.1770158 L160.068749,18.7908376 L168.072186,14.1770158 L168.072186,4.94937241 L160.068749,0.335550672 L160.068749,0.335550672 Z"
             id="path63" />
          <path
             d="M175.27528,1.25831502 L182.478374,5.36881075 L182.478374,13.5898022 L175.27528,17.7002979 L168.072186,13.5898022 L168.072186,5.36881075 L175.27528,1.25831502 M175.27528,0.335550672 L167.271843,4.94937241 L167.271843,14.1770158 L175.27528,18.7908376 L183.278718,14.1770158 L183.278718,4.94937241 L175.27528,0.335550672 L175.27528,0.335550672 Z"
             id="path64" />
          <path
             d="M190.48181,1.25831502 L197.684905,5.36881075 L197.684905,13.5898022 L190.48181,17.7002979 L183.278718,13.5898022 L183.278718,5.36881075 L190.48181,1.25831502 M190.48181,0.335550672 L182.478374,4.94937241 L182.478374,14.1770158 L190.48181,18.7908376 L198.485249,14.1770158 L198.485249,4.94937241 L190.48181,0.335550672 L190.48181,0.335550672 Z"
             id="path65" />
          <path
             d="M205.688343,1.25831502 L212.891436,5.36881075 L212.891436,13.5898022 L205.688343,17.7002979 L198.485249,13.5898022 L198.485249,5.36881075 L205.688343,1.25831502 M205.688343,0.335550672 L197.684905,4.94937241 L197.684905,14.1770158 L205.688343,18.7908376 L213.69178,14.1770158 L213.69178,4.94937241 L205.688343,0.335550672 L205.688343,0.335550672 Z"
             id="path66" />
          <path
             d="M220.894874,1.25831502 L228.097967,5.36881075 L228.097967,13.5898022 L220.894874,17.7002979 L213.69178,13.5898022 L213.69178,5.36881075 L220.894874,1.25831502 M220.894874,0.335550672 L212.891436,4.94937241 L212.891436,14.1770158 L220.894874,18.7908376 L228.898311,14.1770158 L228.898311,4.94937241 L220.894874,0.335550672 L220.894874,0.335550672 Z"
             id="path67" />
          <path
             d="M236.101405,1.25831502 L243.304498,5.36881075 L243.304498,13.5898022 L236.101405,17.7002979 L228.898311,13.5898022 L228.898311,5.36881075 L236.101405,1.25831502 M236.101405,0.335550672 L228.097967,4.94937241 L228.097967,14.1770158 L236.101405,18.7908376 L244.104842,14.1770158 L244.104842,4.94937241 L236.101405,0.335550672 L236.101405,0.335550672 Z"
             id="path68" />
          <path
             d="M251.307936,1.25831502 L258.511029,5.36881075 L258.511029,13.5898022 L251.307936,17.7002979 L244.104842,13.5898022 L244.104842,5.36881075 L251.307936,1.25831502 M251.307936,0.335550672 L243.304498,4.94937241 L243.304498,14.1770158 L251.307936,18.7908376 L259.311373,14.1770158 L259.311373,4.94937241 L251.307936,0.335550672 L251.307936,0.335550672 Z"
             id="path69" />
          <path
             d="M266.514467,1.25831502 L273.71756,5.36881075 L273.71756,13.5898022 L266.514467,17.7002979 L259.311373,13.5898022 L259.311373,5.36881075 L266.514467,1.25831502 M266.514467,0.335550672 L258.511029,4.94937241 L258.511029,14.1770158 L266.514467,18.7908376 L274.517904,14.1770158 L274.517904,4.94937241 L266.514467,0.335550672 L266.514467,0.335550672 Z"
             id="path70" />
          <path
             d="M281.720998,1.25831502 L288.924093,5.36881075 L288.924093,13.5898022 L281.720998,17.7002979 L274.517904,13.5898022 L274.517904,5.36881075 L281.720998,1.25831502 M281.720998,0.335550672 L273.71756,4.94937241 L273.71756,14.1770158 L281.720998,18.7908376 L289.724435,14.1770158 L289.724435,4.94937241 L281.720998,0.335550672 L281.720998,0.335550672 Z"
             id="path71" />
          <path
             d="M296.927529,1.25831502 L304.130623,5.36881075 L304.130623,13.5898022 L296.927529,17.7002979 L289.724435,13.5898022 L289.724435,5.36881075 L296.927529,1.25831502 M296.927529,0.335550672 L288.924093,4.94937241 L288.924093,14.1770158 L296.927529,18.7908376 L304.930967,14.1770158 L304.930967,4.94937241 L296.927529,0.335550672 L296.927529,0.335550672 Z"
             id="path72" />
        </g>
        <g
           fill="#CECECE"
           fill-rule="nonzero"
           transform="translate(7.203 43.974)"
           id="g92">
          <path
             d="M8.40360932,1.34220269 L15.606703,5.45269841 L15.606703,13.6736899 L8.40360932,17.7841856 L1.20051561,13.6736899 L1.20051561,5.45269841 L8.40360932,1.34220269 M8.40360932,0.335550672 L0.400171872,4.94937241 L0.400171872,14.1770158 L8.40360932,18.7908376 L16.4070468,14.1770158 L16.4070468,4.94937241 L8.40360932,0.335550672 L8.40360932,0.335550672 Z"
             id="path73" />
          <path
             d="M23.6101405,1.34220269 L30.8132342,5.45269841 L30.8132342,13.6736899 L23.6101405,17.7841856 L16.4070468,13.6736899 L16.4070468,5.45269841 L23.6101405,1.34220269 M23.6101405,0.335550672 L15.606703,4.94937241 L15.606703,14.1770158 L23.6101405,18.7908376 L31.6135779,14.1770158 L31.6135779,4.94937241 L23.6101405,0.335550672 L23.6101405,0.335550672 Z"
             id="path74" />
          <path
             d="M38.8166717,1.34220269 L46.0197653,5.45269841 L46.0197653,13.6736899 L38.8166717,17.7841856 L31.6135779,13.6736899 L31.6135779,5.45269841 L38.8166717,1.34220269 M38.8166717,0.335550672 L30.8132342,4.94937241 L30.8132342,14.1770158 L38.8166717,18.7908376 L46.8201091,14.1770158 L46.8201091,4.94937241 L38.8166717,0.335550672 L38.8166717,0.335550672 Z"
             id="path75" />
          <path
             d="M54.0232027,1.34220269 L61.2262966,5.45269841 L61.2262966,13.6736899 L54.0232027,17.7841856 L46.8201091,13.6736899 L46.8201091,5.45269841 L54.0232027,1.34220269 M54.0232027,0.335550672 L46.0197653,4.94937241 L46.0197653,14.1770158 L54.0232027,18.7908376 L62.0266402,14.1770158 L62.0266402,4.94937241 L54.0232027,0.335550672 L54.0232027,0.335550672 Z"
             id="path76" />
          <path
             d="M69.2297339,1.34220269 L76.4328276,5.45269841 L76.4328276,13.6736899 L69.2297339,17.7841856 L62.0266402,13.6736899 L62.0266402,5.45269841 L69.2297339,1.34220269 M69.2297339,0.335550672 L61.2262966,4.94937241 L61.2262966,14.1770158 L69.2297339,18.7908376 L77.2331713,14.1770158 L77.2331713,4.94937241 L69.2297339,0.335550672 L69.2297339,0.335550672 Z"
             id="path77" />
          <path
             d="M84.4362651,1.34220269 L91.6393587,5.45269841 L91.6393587,13.6736899 L84.4362651,17.7841856 L77.2331713,13.6736899 L77.2331713,5.45269841 L84.4362651,1.34220269 M84.4362651,0.335550672 L76.4328276,4.94937241 L76.4328276,14.1770158 L84.4362651,18.7908376 L92.4397026,14.1770158 L92.4397026,4.94937241 L84.4362651,0.335550672 L84.4362651,0.335550672 Z"
             id="path78" />
          <path
             d="M99.6427962,1.34220269 L106.845889,5.45269841 L106.845889,13.6736899 L99.6427962,17.7841856 L92.4397026,13.6736899 L92.4397026,5.45269841 L99.6427962,1.34220269 M99.6427962,0.335550672 L91.6393587,4.94937241 L91.6393587,14.1770158 L99.6427962,18.7908376 L107.646233,14.1770158 L107.646233,4.94937241 L99.6427962,0.335550672 L99.6427962,0.335550672 Z"
             id="path79" />
          <path
             d="M114.849328,1.34220269 L122.052421,5.45269841 L122.052421,13.6736899 L114.849328,17.7841856 L107.646233,13.6736899 L107.646233,5.45269841 L114.849328,1.34220269 M114.849328,0.335550672 L106.845889,4.94937241 L106.845889,14.1770158 L114.849328,18.7908376 L122.852764,14.1770158 L122.852764,4.94937241 L114.849328,0.335550672 L114.849328,0.335550672 Z"
             id="path80" />
          <path
             d="M130.055859,1.34220269 L137.258953,5.45269841 L137.258953,13.6736899 L130.055859,17.7841856 L122.852764,13.6736899 L122.852764,5.45269841 L130.055859,1.34220269 M130.055859,0.335550672 L122.052421,4.94937241 L122.052421,14.1770158 L130.055859,18.7908376 L138.059296,14.1770158 L138.059296,4.94937241 L130.055859,0.335550672 L130.055859,0.335550672 Z"
             id="path81" />
          <path
             d="M145.262389,1.34220269 L152.465484,5.45269841 L152.465484,13.6736899 L145.262389,17.7841856 L138.059296,13.6736899 L138.059296,5.45269841 L145.262389,1.34220269 M145.262389,0.335550672 L137.258953,4.94937241 L137.258953,14.1770158 L145.262389,18.7908376 L153.265828,14.1770158 L153.265828,4.94937241 L145.262389,0.335550672 L145.262389,0.335550672 Z"
             id="path82" />
          <path
             d="M160.46892,1.34220269 L167.672015,5.45269841 L167.672015,13.6736899 L160.46892,17.7841856 L153.265828,13.6736899 L153.265828,5.45269841 L160.46892,1.34220269 M160.46892,0.335550672 L152.465484,4.94937241 L152.465484,14.1770158 L160.46892,18.7908376 L168.472359,14.1770158 L168.472359,4.94937241 L160.46892,0.335550672 L160.46892,0.335550672 Z"
             id="path83" />
          <path
             d="M175.675452,1.34220269 L182.878545,5.45269841 L182.878545,13.6736899 L175.675452,17.7841856 L168.472359,13.6736899 L168.472359,5.45269841 L175.675452,1.34220269 M175.675452,0.335550672 L167.672015,4.94937241 L167.672015,14.1770158 L175.675452,18.7908376 L183.67889,14.1770158 L183.67889,4.94937241 L175.675452,0.335550672 L175.675452,0.335550672 Z"
             id="path84" />
          <path
             d="M190.881983,1.34220269 L198.085077,5.45269841 L198.085077,13.6736899 L190.881983,17.7841856 L183.67889,13.6736899 L183.67889,5.45269841 L190.881983,1.34220269 M190.881983,0.335550672 L182.878545,4.94937241 L182.878545,14.1770158 L190.881983,18.7908376 L198.88542,14.1770158 L198.88542,4.94937241 L190.881983,0.335550672 L190.881983,0.335550672 Z"
             id="path85" />
          <path
             d="M206.088514,1.34220269 L213.291608,5.45269841 L213.291608,13.6736899 L206.088514,17.7841856 L198.88542,13.6736899 L198.88542,5.45269841 L206.088514,1.34220269 M206.088514,0.335550672 L198.085077,4.94937241 L198.085077,14.1770158 L206.088514,18.7908376 L214.091952,14.1770158 L214.091952,4.94937241 L206.088514,0.335550672 L206.088514,0.335550672 Z"
             id="path86" />
          <path
             d="M221.295046,1.34220269 L228.498139,5.45269841 L228.498139,13.6736899 L221.295046,17.7841856 L214.091952,13.6736899 L214.091952,5.45269841 L221.295046,1.34220269 M221.295046,0.335550672 L213.291608,4.94937241 L213.291608,14.1770158 L221.295046,18.7908376 L229.298483,14.1770158 L229.298483,4.94937241 L221.295046,0.335550672 L221.295046,0.335550672 Z"
             id="path87" />
          <path
             d="M236.501577,1.34220269 L243.70467,5.45269841 L243.70467,13.6736899 L236.501577,17.7841856 L229.298483,13.6736899 L229.298483,5.45269841 L236.501577,1.34220269 M236.501577,0.335550672 L228.498139,4.94937241 L228.498139,14.1770158 L236.501577,18.7908376 L244.505014,14.1770158 L244.505014,4.94937241 L236.501577,0.335550672 L236.501577,0.335550672 Z"
             id="path88" />
          <path
             d="M251.708108,1.34220269 L258.911202,5.45269841 L258.911202,13.6736899 L251.708108,17.7841856 L244.505014,13.6736899 L244.505014,5.45269841 L251.708108,1.34220269 M251.708108,0.335550672 L243.70467,4.94937241 L243.70467,14.1770158 L251.708108,18.7908376 L259.711545,14.1770158 L259.711545,4.94937241 L251.708108,0.335550672 L251.708108,0.335550672 Z"
             id="path89" />
          <path
             d="M266.914639,1.34220269 L274.117732,5.45269841 L274.117732,13.6736899 L266.914639,17.7841856 L259.711545,13.6736899 L259.711545,5.45269841 L266.914639,1.34220269 M266.914639,0.335550672 L258.911202,4.94937241 L258.911202,14.1770158 L266.914639,18.7908376 L274.918077,14.1770158 L274.918077,4.94937241 L266.914639,0.335550672 L266.914639,0.335550672 Z"
             id="path90" />
          <path
             d="M282.12117,1.34220269 L289.324263,5.45269841 L289.324263,13.6736899 L282.12117,17.7841856 L274.918077,13.6736899 L274.918077,5.45269841 L282.12117,1.34220269 M282.12117,0.335550672 L274.117732,4.94937241 L274.117732,14.1770158 L282.12117,18.7908376 L290.124607,14.1770158 L290.124607,4.94937241 L282.12117,0.335550672 L282.12117,0.335550672 Z"
             id="path91" />
          <path
             d="M297.327702,1.34220269 L304.530795,5.45269841 L304.530795,13.6736899 L297.327702,17.7841856 L290.124607,13.6736899 L290.124607,5.45269841 L297.327702,1.34220269 M297.327702,0.335550672 L289.324263,4.94937241 L289.324263,14.1770158 L297.327702,18.7908376 L305.331138,14.1770158 L305.331138,4.94937241 L297.327702,0.335550672 L297.327702,0.335550672 Z"
             id="path92" />
        </g>
        <g
           fill="#CECECE"
           fill-rule="nonzero"
           transform="translate(0 57.396)"
           id="g112">
          <path
             d="M8.00343745,1.50997803 L15.2065311,5.62047375 L15.2065311,13.8414652 L8.00343745,17.9519609 L0.800343745,13.8414652 L0.800343745,5.62047375 L8.00343745,1.50997803 M8.00343745,0.503326007 L0,5.11714775 L0,14.3447912 L8.00343745,18.9586129 L16.0068749,14.3447912 L16.0068749,5.11714775 L8.00343745,0.503326007 L8.00343745,0.503326007 Z"
             id="path93" />
          <path
             d="M23.2099685,1.50997803 L30.4130623,5.62047375 L30.4130623,13.8414652 L23.2099685,17.9519609 L16.0068749,13.8414652 L16.0068749,5.62047375 L23.2099685,1.50997803 M23.2099685,0.503326007 L15.2065311,5.11714775 L15.2065311,14.3447912 L23.2099685,18.9586129 L31.213406,14.3447912 L31.213406,5.11714775 L23.2099685,0.503326007 L23.2099685,0.503326007 Z"
             id="path94" />
          <path
             d="M38.4164997,1.50997803 L45.6195934,5.62047375 L45.6195934,13.8414652 L38.4164997,17.9519609 L31.213406,13.8414652 L31.213406,5.62047375 L38.4164997,1.50997803 M38.4164997,0.503326007 L30.4130623,5.11714775 L30.4130623,14.3447912 L38.4164997,18.9586129 L46.4199372,14.3447912 L46.4199372,5.11714775 L38.4164997,0.503326007 L38.4164997,0.503326007 Z"
             id="path95" />
          <path
             d="M53.6230309,1.50997803 L60.8261246,5.62047375 L60.8261246,13.8414652 L53.6230309,17.9519609 L46.4199372,13.8414652 L46.4199372,5.62047375 L53.6230309,1.50997803 M53.6230309,0.503326007 L45.6195934,5.11714775 L45.6195934,14.3447912 L53.6230309,18.9586129 L61.6264683,14.3447912 L61.6264683,5.11714775 L53.6230309,0.503326007 L53.6230309,0.503326007 Z"
             id="path96" />
          <path
             d="M68.8295621,1.50997803 L76.0326557,5.62047375 L76.0326557,13.8414652 L68.8295621,17.9519609 L61.6264683,13.8414652 L61.6264683,5.62047375 L68.8295621,1.50997803 M68.8295621,0.503326007 L60.8261246,5.11714775 L60.8261246,14.3447912 L68.8295621,18.9586129 L76.8329996,14.3447912 L76.8329996,5.11714775 L68.8295621,0.503326007 L68.8295621,0.503326007 Z"
             id="path97" />
          <path
             d="M84.0360932,1.50997803 L91.2391869,5.62047375 L91.2391869,13.8414652 L84.0360932,17.9519609 L76.8329996,13.8414652 L76.8329996,5.62047375 L84.0360932,1.50997803 M84.0360932,0.503326007 L76.0326557,5.11714775 L76.0326557,14.3447912 L84.0360932,18.9586129 L92.0395306,14.3447912 L92.0395306,5.11714775 L84.0360932,0.503326007 L84.0360932,0.503326007 Z"
             id="path98" />
          <path
             d="M99.2426244,1.50997803 L106.445719,5.62047375 L106.445719,13.8414652 L99.2426244,17.9519609 L92.0395306,13.8414652 L92.0395306,5.62047375 L99.2426244,1.50997803 M99.2426244,0.503326007 L91.2391869,5.11714775 L91.2391869,14.3447912 L99.2426244,18.9586129 L107.246061,14.3447912 L107.246061,5.11714775 L99.2426244,0.503326007 L99.2426244,0.503326007 Z"
             id="path99" />
          <path
             d="M114.449155,1.50997803 L121.65225,5.62047375 L121.65225,13.8414652 L114.449155,17.9519609 L107.246061,13.8414652 L107.246061,5.62047375 L114.449155,1.50997803 M114.449155,0.503326007 L106.445719,5.11714775 L106.445719,14.3447912 L114.449155,18.9586129 L122.452594,14.3447912 L122.452594,5.11714775 L114.449155,0.503326007 L114.449155,0.503326007 Z"
             id="path100" />
          <path
             d="M129.655686,1.50997803 L136.85878,5.62047375 L136.85878,13.8414652 L129.655686,17.9519609 L122.452594,13.8414652 L122.452594,5.62047375 L129.655686,1.50997803 M129.655686,0.503326007 L121.65225,5.11714775 L121.65225,14.3447912 L129.655686,18.9586129 L137.659125,14.3447912 L137.659125,5.11714775 L129.655686,0.503326007 L129.655686,0.503326007 Z"
             id="path101" />
          <path
             d="M144.862218,1.50997803 L152.065311,5.62047375 L152.065311,13.8414652 L144.862218,17.9519609 L137.659125,13.8414652 L137.659125,5.62047375 L144.862218,1.50997803 M144.862218,0.503326007 L136.85878,5.11714775 L136.85878,14.3447912 L144.862218,18.9586129 L152.865655,14.3447912 L152.865655,5.11714775 L144.862218,0.503326007 L144.862218,0.503326007 Z"
             id="path102" />
          <path
             d="M160.068749,1.50997803 L167.271843,5.62047375 L167.271843,13.8414652 L160.068749,17.9519609 L152.865655,13.8414652 L152.865655,5.62047375 L160.068749,1.50997803 M160.068749,0.503326007 L152.065311,5.11714775 L152.065311,14.3447912 L160.068749,18.9586129 L168.072186,14.3447912 L168.072186,5.11714775 L160.068749,0.503326007 L160.068749,0.503326007 Z"
             id="path103" />
          <path
             d="M175.27528,1.50997803 L182.478374,5.62047375 L182.478374,13.8414652 L175.27528,17.9519609 L168.072186,13.8414652 L168.072186,5.62047375 L175.27528,1.50997803 M175.27528,0.503326007 L167.271843,5.11714775 L167.271843,14.3447912 L175.27528,18.9586129 L183.278718,14.3447912 L183.278718,5.11714775 L175.27528,0.503326007 L175.27528,0.503326007 Z"
             id="path104" />
          <path
             d="M190.48181,1.50997803 L197.684905,5.62047375 L197.684905,13.8414652 L190.48181,17.9519609 L183.278718,13.8414652 L183.278718,5.62047375 L190.48181,1.50997803 M190.48181,0.503326007 L182.478374,5.11714775 L182.478374,14.3447912 L190.48181,18.9586129 L198.485249,14.3447912 L198.485249,5.11714775 L190.48181,0.503326007 L190.48181,0.503326007 Z"
             id="path105" />
          <path
             d="M205.688343,1.50997803 L212.891436,5.62047375 L212.891436,13.8414652 L205.688343,17.9519609 L198.485249,13.8414652 L198.485249,5.62047375 L205.688343,1.50997803 M205.688343,0.503326007 L197.684905,5.11714775 L197.684905,14.3447912 L205.688343,18.9586129 L213.69178,14.3447912 L213.69178,5.11714775 L205.688343,0.503326007 L205.688343,0.503326007 Z"
             id="path106" />
          <path
             d="M220.894874,1.50997803 L228.097967,5.62047375 L228.097967,13.8414652 L220.894874,17.9519609 L213.69178,13.8414652 L213.69178,5.62047375 L220.894874,1.50997803 M220.894874,0.503326007 L212.891436,5.11714775 L212.891436,14.3447912 L220.894874,18.9586129 L228.898311,14.3447912 L228.898311,5.11714775 L220.894874,0.503326007 L220.894874,0.503326007 Z"
             id="path107" />
          <path
             d="M236.101405,1.50997803 L243.304498,5.62047375 L243.304498,13.8414652 L236.101405,17.9519609 L228.898311,13.8414652 L228.898311,5.62047375 L236.101405,1.50997803 M236.101405,0.503326007 L228.097967,5.11714775 L228.097967,14.3447912 L236.101405,18.9586129 L244.104842,14.3447912 L244.104842,5.11714775 L236.101405,0.503326007 L236.101405,0.503326007 Z"
             id="path108" />
          <path
             d="M251.307936,1.50997803 L258.511029,5.62047375 L258.511029,13.8414652 L251.307936,17.9519609 L244.104842,13.8414652 L244.104842,5.62047375 L251.307936,1.50997803 M251.307936,0.503326007 L243.304498,5.11714775 L243.304498,14.3447912 L251.307936,18.9586129 L259.311373,14.3447912 L259.311373,5.11714775 L251.307936,0.503326007 L251.307936,0.503326007 Z"
             id="path109" />
          <path
             d="M266.514467,1.50997803 L273.71756,5.62047375 L273.71756,13.8414652 L266.514467,17.9519609 L259.311373,13.8414652 L259.311373,5.62047375 L266.514467,1.50997803 M266.514467,0.503326007 L258.511029,5.11714775 L258.511029,14.3447912 L266.514467,18.9586129 L274.517904,14.3447912 L274.517904,5.11714775 L266.514467,0.503326007 L266.514467,0.503326007 Z"
             id="path110" />
          <path
             d="M281.720998,1.50997803 L288.924093,5.62047375 L288.924093,13.8414652 L281.720998,17.9519609 L274.517904,13.8414652 L274.517904,5.62047375 L281.720998,1.50997803 M281.720998,0.503326007 L273.71756,5.11714775 L273.71756,14.3447912 L281.720998,18.9586129 L289.724435,14.3447912 L289.724435,5.11714775 L281.720998,0.503326007 L281.720998,0.503326007 Z"
             id="path111" />
          <path
             d="M296.927529,1.50997803 L304.130623,5.62047375 L304.130623,13.8414652 L296.927529,17.9519609 L289.724435,13.8414652 L289.724435,5.62047375 L296.927529,1.50997803 M296.927529,0.503326007 L288.924093,5.11714775 L288.924093,14.3447912 L296.927529,18.9586129 L304.930967,14.3447912 L304.930967,5.11714775 L296.927529,0.503326007 L296.927529,0.503326007 Z"
             id="path112" />
        </g>
        <g
           fill="#CECECE"
           fill-rule="nonzero"
           transform="translate(7.203 70.818)"
           id="g132">
          <path
             d="M8.40360932,1.50997803 L15.606703,5.62047375 L15.606703,13.8414652 L8.40360932,17.9519609 L1.20051561,13.8414652 L1.20051561,5.62047375 L8.40360932,1.50997803 M8.40360932,0.587213675 L0.400171872,5.20103541 L0.400171872,14.4286788 L8.40360932,19.0425006 L16.4070468,14.4286788 L16.4070468,5.20103541 L8.40360932,0.587213675 L8.40360932,0.587213675 Z"
             id="path113" />
          <path
             d="M23.6101405,1.50997803 L30.8132342,5.62047375 L30.8132342,13.8414652 L23.6101405,17.9519609 L16.4070468,13.8414652 L16.4070468,5.62047375 L23.6101405,1.50997803 M23.6101405,0.587213675 L15.606703,5.20103541 L15.606703,14.4286788 L23.6101405,19.0425006 L31.6135779,14.4286788 L31.6135779,5.20103541 L23.6101405,0.587213675 L23.6101405,0.587213675 Z"
             id="path114" />
          <path
             d="M38.8166717,1.50997803 L46.0197653,5.62047375 L46.0197653,13.8414652 L38.8166717,17.9519609 L31.6135779,13.8414652 L31.6135779,5.62047375 L38.8166717,1.50997803 M38.8166717,0.587213675 L30.8132342,5.20103541 L30.8132342,14.4286788 L38.8166717,19.0425006 L46.8201091,14.4286788 L46.8201091,5.20103541 L38.8166717,0.587213675 L38.8166717,0.587213675 Z"
             id="path115" />
          <path
             d="M54.0232027,1.50997803 L61.2262966,5.62047375 L61.2262966,13.8414652 L54.0232027,17.9519609 L46.8201091,13.8414652 L46.8201091,5.62047375 L54.0232027,1.50997803 M54.0232027,0.587213675 L46.0197653,5.20103541 L46.0197653,14.4286788 L54.0232027,19.0425006 L62.0266402,14.4286788 L62.0266402,5.20103541 L54.0232027,0.587213675 L54.0232027,0.587213675 Z"
             id="path116" />
          <path
             d="M69.2297339,1.50997803 L76.4328276,5.62047375 L76.4328276,13.8414652 L69.2297339,17.9519609 L62.0266402,13.8414652 L62.0266402,5.62047375 L69.2297339,1.50997803 M69.2297339,0.587213675 L61.2262966,5.20103541 L61.2262966,14.4286788 L69.2297339,19.0425006 L77.2331713,14.4286788 L77.2331713,5.20103541 L69.2297339,0.587213675 L69.2297339,0.587213675 Z"
             id="path117" />
          <path
             d="M84.4362651,1.50997803 L91.6393587,5.62047375 L91.6393587,13.8414652 L84.4362651,17.9519609 L77.2331713,13.8414652 L77.2331713,5.62047375 L84.4362651,1.50997803 M84.4362651,0.587213675 L76.4328276,5.20103541 L76.4328276,14.4286788 L84.4362651,19.0425006 L92.4397026,14.4286788 L92.4397026,5.20103541 L84.4362651,0.587213675 L84.4362651,0.587213675 Z"
             id="path118" />
          <path
             d="M99.6427962,1.50997803 L106.845889,5.62047375 L106.845889,13.8414652 L99.6427962,17.9519609 L92.4397026,13.8414652 L92.4397026,5.62047375 L99.6427962,1.50997803 M99.6427962,0.587213675 L91.6393587,5.20103541 L91.6393587,14.4286788 L99.6427962,19.0425006 L107.646233,14.4286788 L107.646233,5.20103541 L99.6427962,0.587213675 L99.6427962,0.587213675 Z"
             id="path119" />
          <path
             d="M114.849328,1.50997803 L122.052421,5.62047375 L122.052421,13.8414652 L114.849328,17.9519609 L107.646233,13.8414652 L107.646233,5.62047375 L114.849328,1.50997803 M114.849328,0.587213675 L106.845889,5.20103541 L106.845889,14.4286788 L114.849328,19.0425006 L122.852764,14.4286788 L122.852764,5.20103541 L114.849328,0.587213675 L114.849328,0.587213675 Z"
             id="path120" />
          <path
             d="M130.055859,1.50997803 L137.258953,5.62047375 L137.258953,13.8414652 L130.055859,17.9519609 L122.852764,13.8414652 L122.852764,5.62047375 L130.055859,1.50997803 M130.055859,0.587213675 L122.052421,5.20103541 L122.052421,14.4286788 L130.055859,19.0425006 L138.059296,14.4286788 L138.059296,5.20103541 L130.055859,0.587213675 L130.055859,0.587213675 Z"
             id="path121" />
          <path
             d="M145.262389,1.50997803 L152.465484,5.62047375 L152.465484,13.8414652 L145.262389,17.9519609 L138.059296,13.8414652 L138.059296,5.62047375 L145.262389,1.50997803 M145.262389,0.587213675 L137.258953,5.20103541 L137.258953,14.4286788 L145.262389,19.0425006 L153.265828,14.4286788 L153.265828,5.20103541 L145.262389,0.587213675 L145.262389,0.587213675 Z"
             id="path122" />
          <path
             d="M160.46892,1.50997803 L167.672015,5.62047375 L167.672015,13.8414652 L160.46892,17.9519609 L153.265828,13.8414652 L153.265828,5.62047375 L160.46892,1.50997803 M160.46892,0.587213675 L152.465484,5.20103541 L152.465484,14.4286788 L160.46892,19.0425006 L168.472359,14.4286788 L168.472359,5.20103541 L160.46892,0.587213675 L160.46892,0.587213675 Z"
             id="path123" />
          <path
             d="M175.675452,1.50997803 L182.878545,5.62047375 L182.878545,13.8414652 L175.675452,17.9519609 L168.472359,13.8414652 L168.472359,5.62047375 L175.675452,1.50997803 M175.675452,0.587213675 L167.672015,5.20103541 L167.672015,14.4286788 L175.675452,19.0425006 L183.67889,14.4286788 L183.67889,5.20103541 L175.675452,0.587213675 L175.675452,0.587213675 Z"
             id="path124" />
          <path
             d="M190.881983,1.50997803 L198.085077,5.62047375 L198.085077,13.8414652 L190.881983,17.9519609 L183.67889,13.8414652 L183.67889,5.62047375 L190.881983,1.50997803 M190.881983,0.587213675 L182.878545,5.20103541 L182.878545,14.4286788 L190.881983,19.0425006 L198.88542,14.4286788 L198.88542,5.20103541 L190.881983,0.587213675 L190.881983,0.587213675 Z"
             id="path125" />
          <path
             d="M206.088514,1.50997803 L213.291608,5.62047375 L213.291608,13.8414652 L206.088514,17.9519609 L198.88542,13.8414652 L198.88542,5.62047375 L206.088514,1.50997803 M206.088514,0.587213675 L198.085077,5.20103541 L198.085077,14.4286788 L206.088514,19.0425006 L214.091952,14.4286788 L214.091952,5.20103541 L206.088514,0.587213675 L206.088514,0.587213675 Z"
             id="path126" />
          <path
             d="M221.295046,1.50997803 L228.498139,5.62047375 L228.498139,13.8414652 L221.295046,17.9519609 L214.091952,13.8414652 L214.091952,5.62047375 L221.295046,1.50997803 M221.295046,0.587213675 L213.291608,5.20103541 L213.291608,14.4286788 L221.295046,19.0425006 L229.298483,14.4286788 L229.298483,5.20103541 L221.295046,0.587213675 L221.295046,0.587213675 Z"
             id="path127" />
          <path
             d="M236.501577,1.50997803 L243.70467,5.62047375 L243.70467,13.8414652 L236.501577,17.9519609 L229.298483,13.8414652 L229.298483,5.62047375 L236.501577,1.50997803 M236.501577,0.587213675 L228.498139,5.20103541 L228.498139,14.4286788 L236.501577,19.0425006 L244.505014,14.4286788 L244.505014,5.20103541 L236.501577,0.587213675 L236.501577,0.587213675 Z"
             id="path128" />
          <path
             d="M251.708108,1.50997803 L258.911202,5.62047375 L258.911202,13.8414652 L251.708108,17.9519609 L244.505014,13.8414652 L244.505014,5.62047375 L251.708108,1.50997803 M251.708108,0.587213675 L243.70467,5.20103541 L243.70467,14.4286788 L251.708108,19.0425006 L259.711545,14.4286788 L259.711545,5.20103541 L251.708108,0.587213675 L251.708108,0.587213675 Z"
             id="path129" />
          <path
             d="M266.914639,1.50997803 L274.117732,5.62047375 L274.117732,13.8414652 L266.914639,17.9519609 L259.711545,13.8414652 L259.711545,5.62047375 L266.914639,1.50997803 M266.914639,0.587213675 L258.911202,5.20103541 L258.911202,14.4286788 L266.914639,19.0425006 L274.918077,14.4286788 L274.918077,5.20103541 L266.914639,0.587213675 L266.914639,0.587213675 Z"
             id="path130" />
          <path
             d="M282.12117,1.50997803 L289.324263,5.62047375 L289.324263,13.8414652 L282.12117,17.9519609 L274.918077,13.8414652 L274.918077,5.62047375 L282.12117,1.50997803 M282.12117,0.587213675 L274.117732,5.20103541 L274.117732,14.4286788 L282.12117,19.0425006 L290.124607,14.4286788 L290.124607,5.20103541 L282.12117,0.587213675 L282.12117,0.587213675 Z"
             id="path131" />
          <path
             d="M297.327702,1.50997803 L304.530795,5.62047375 L304.530795,13.8414652 L297.327702,17.9519609 L290.124607,13.8414652 L290.124607,5.62047375 L297.327702,1.50997803 M297.327702,0.587213675 L289.324263,5.20103541 L289.324263,14.4286788 L297.327702,19.0425006 L305.331138,14.4286788 L305.331138,5.20103541 L297.327702,0.587213675 L297.327702,0.587213675 Z"
             id="path132" />
        </g>
        <g
           fill="#CECECE"
           fill-rule="nonzero"
           transform="translate(0 84.24)"
           id="g152">
          <path
             d="M8.00343745,1.67775335 L15.2065311,5.78824909 L15.2065311,14.0092405 L8.00343745,18.1197363 L0.800343745,14.0092405 L0.800343745,5.87213675 L8.00343745,1.67775335 M8.00343745,0.754989011 L0,5.36881075 L0,14.5964542 L8.00343745,19.2102759 L16.0068749,14.5964542 L16.0068749,5.36881075 L8.00343745,0.754989011 L8.00343745,0.754989011 Z"
             id="path133" />
          <path
             d="M23.2099685,1.67775335 L30.4130623,5.78824909 L30.4130623,14.0092405 L23.2099685,18.1197363 L16.0068749,14.0092405 L16.0068749,5.87213675 L23.2099685,1.67775335 M23.2099685,0.754989011 L15.2065311,5.36881075 L15.2065311,14.5964542 L23.2099685,19.2102759 L31.213406,14.5964542 L31.213406,5.36881075 L23.2099685,0.754989011 L23.2099685,0.754989011 Z"
             id="path134" />
          <path
             d="M38.4164997,1.67775335 L45.6195934,5.78824909 L45.6195934,14.0092405 L38.4164997,18.1197363 L31.213406,14.0092405 L31.213406,5.87213675 L38.4164997,1.67775335 M38.4164997,0.754989011 L30.4130623,5.36881075 L30.4130623,14.5964542 L38.4164997,19.2102759 L46.4199372,14.5964542 L46.4199372,5.36881075 L38.4164997,0.754989011 L38.4164997,0.754989011 Z"
             id="path135" />
          <path
             d="M53.6230309,1.67775335 L60.8261246,5.78824909 L60.8261246,14.0092405 L53.6230309,18.1197363 L46.4199372,14.0092405 L46.4199372,5.87213675 L53.6230309,1.67775335 M53.6230309,0.754989011 L45.6195934,5.36881075 L45.6195934,14.5964542 L53.6230309,19.2102759 L61.6264683,14.5964542 L61.6264683,5.36881075 L53.6230309,0.754989011 L53.6230309,0.754989011 Z"
             id="path136" />
          <path
             d="M68.8295621,1.67775335 L76.0326557,5.78824909 L76.0326557,14.0092405 L68.8295621,18.1197363 L61.6264683,14.0092405 L61.6264683,5.87213675 L68.8295621,1.67775335 M68.8295621,0.754989011 L60.8261246,5.36881075 L60.8261246,14.5964542 L68.8295621,19.2102759 L76.8329996,14.5964542 L76.8329996,5.36881075 L68.8295621,0.754989011 L68.8295621,0.754989011 Z"
             id="path137" />
          <path
             d="M84.0360932,1.67775335 L91.2391869,5.78824909 L91.2391869,14.0092405 L84.0360932,18.1197363 L76.8329996,14.0092405 L76.8329996,5.87213675 L84.0360932,1.67775335 M84.0360932,0.754989011 L76.0326557,5.36881075 L76.0326557,14.5964542 L84.0360932,19.2102759 L92.0395306,14.5964542 L92.0395306,5.36881075 L84.0360932,0.754989011 L84.0360932,0.754989011 Z"
             id="path138" />
          <path
             d="M99.2426244,1.67775335 L106.445719,5.78824909 L106.445719,14.0092405 L99.2426244,18.1197363 L92.0395306,14.0092405 L92.0395306,5.87213675 L99.2426244,1.67775335 M99.2426244,0.754989011 L91.2391869,5.36881075 L91.2391869,14.5964542 L99.2426244,19.2102759 L107.246061,14.5964542 L107.246061,5.36881075 L99.2426244,0.754989011 L99.2426244,0.754989011 Z"
             id="path139" />
          <path
             d="M114.449155,1.67775335 L121.65225,5.78824909 L121.65225,14.0092405 L114.449155,18.1197363 L107.246061,14.0092405 L107.246061,5.87213675 L114.449155,1.67775335 M114.449155,0.754989011 L106.445719,5.36881075 L106.445719,14.5964542 L114.449155,19.2102759 L122.452594,14.5964542 L122.452594,5.36881075 L114.449155,0.754989011 L114.449155,0.754989011 Z"
             id="path140" />
          <path
             d="M129.655686,1.67775335 L136.85878,5.78824909 L136.85878,14.0092405 L129.655686,18.1197363 L122.452594,14.0092405 L122.452594,5.87213675 L129.655686,1.67775335 M129.655686,0.754989011 L121.65225,5.36881075 L121.65225,14.5964542 L129.655686,19.2102759 L137.659125,14.5964542 L137.659125,5.36881075 L129.655686,0.754989011 L129.655686,0.754989011 Z"
             id="path141" />
          <path
             d="M144.862218,1.67775335 L152.065311,5.78824909 L152.065311,14.0092405 L144.862218,18.1197363 L137.659125,14.0092405 L137.659125,5.87213675 L144.862218,1.67775335 M144.862218,0.754989011 L136.85878,5.36881075 L136.85878,14.5964542 L144.862218,19.2102759 L152.865655,14.5964542 L152.865655,5.36881075 L144.862218,0.754989011 L144.862218,0.754989011 Z"
             id="path142" />
          <path
             d="M160.068749,1.67775335 L167.271843,5.78824909 L167.271843,14.0092405 L160.068749,18.1197363 L152.865655,14.0092405 L152.865655,5.87213675 L160.068749,1.67775335 M160.068749,0.754989011 L152.065311,5.36881075 L152.065311,14.5964542 L160.068749,19.2102759 L168.072186,14.5964542 L168.072186,5.36881075 L160.068749,0.754989011 L160.068749,0.754989011 Z"
             id="path143" />
          <path
             d="M175.27528,1.67775335 L182.478374,5.78824909 L182.478374,14.0092405 L175.27528,18.1197363 L168.072186,14.0092405 L168.072186,5.87213675 L175.27528,1.67775335 M175.27528,0.754989011 L167.271843,5.36881075 L167.271843,14.5964542 L175.27528,19.2102759 L183.278718,14.5964542 L183.278718,5.36881075 L175.27528,0.754989011 L175.27528,0.754989011 Z"
             id="path144" />
          <path
             d="M190.48181,1.67775335 L197.684905,5.78824909 L197.684905,14.0092405 L190.48181,18.1197363 L183.278718,14.0092405 L183.278718,5.87213675 L190.48181,1.67775335 M190.48181,0.754989011 L182.478374,5.36881075 L182.478374,14.5964542 L190.48181,19.2102759 L198.485249,14.5964542 L198.485249,5.36881075 L190.48181,0.754989011 L190.48181,0.754989011 Z"
             id="path145" />
          <path
             d="M205.688343,1.67775335 L212.891436,5.78824909 L212.891436,14.0092405 L205.688343,18.1197363 L198.485249,14.0092405 L198.485249,5.87213675 L205.688343,1.67775335 M205.688343,0.754989011 L197.684905,5.36881075 L197.684905,14.5964542 L205.688343,19.2102759 L213.69178,14.5964542 L213.69178,5.36881075 L205.688343,0.754989011 L205.688343,0.754989011 Z"
             id="path146" />
          <path
             d="M220.894874,1.67775335 L228.097967,5.78824909 L228.097967,14.0092405 L220.894874,18.1197363 L213.69178,14.0092405 L213.69178,5.87213675 L220.894874,1.67775335 M220.894874,0.754989011 L212.891436,5.36881075 L212.891436,14.5964542 L220.894874,19.2102759 L228.898311,14.5964542 L228.898311,5.36881075 L220.894874,0.754989011 L220.894874,0.754989011 Z"
             id="path147" />
          <path
             d="M236.101405,1.67775335 L243.304498,5.78824909 L243.304498,14.0092405 L236.101405,18.1197363 L228.898311,14.0092405 L228.898311,5.87213675 L236.101405,1.67775335 M236.101405,0.754989011 L228.097967,5.36881075 L228.097967,14.5964542 L236.101405,19.2102759 L244.104842,14.5964542 L244.104842,5.36881075 L236.101405,0.754989011 L236.101405,0.754989011 Z"
             id="path148" />
          <path
             d="M251.307936,1.67775335 L258.511029,5.78824909 L258.511029,14.0092405 L251.307936,18.1197363 L244.104842,14.0092405 L244.104842,5.87213675 L251.307936,1.67775335 M251.307936,0.754989011 L243.304498,5.36881075 L243.304498,14.5964542 L251.307936,19.2102759 L259.311373,14.5964542 L259.311373,5.36881075 L251.307936,0.754989011 L251.307936,0.754989011 Z"
             id="path149" />
          <path
             d="M266.514467,1.67775335 L273.71756,5.78824909 L273.71756,14.0092405 L266.514467,18.1197363 L259.311373,14.0092405 L259.311373,5.87213675 L266.514467,1.67775335 M266.514467,0.754989011 L258.511029,5.36881075 L258.511029,14.5964542 L266.514467,19.2102759 L274.517904,14.5964542 L274.517904,5.36881075 L266.514467,0.754989011 L266.514467,0.754989011 Z"
             id="path150" />
          <path
             d="M281.720998,1.67775335 L288.924093,5.78824909 L288.924093,14.0092405 L281.720998,18.1197363 L274.517904,14.0092405 L274.517904,5.87213675 L281.720998,1.67775335 M281.720998,0.754989011 L273.71756,5.36881075 L273.71756,14.5964542 L281.720998,19.2102759 L289.724435,14.5964542 L289.724435,5.36881075 L281.720998,0.754989011 L281.720998,0.754989011 Z"
             id="path151" />
          <path
             d="M296.927529,1.67775335 L304.130623,5.78824909 L304.130623,14.0092405 L296.927529,18.1197363 L289.724435,14.0092405 L289.724435,5.87213675 L296.927529,1.67775335 M296.927529,0.754989011 L288.924093,5.36881075 L288.924093,14.5964542 L296.927529,19.2102759 L304.930967,14.5964542 L304.930967,5.36881075 L296.927529,0.754989011 L296.927529,0.754989011 Z"
             id="path152" />
        </g>
        <g
           fill="#CECECE"
           fill-rule="nonzero"
           transform="translate(7.203 97.662)"
           id="g172">
          <path
             d="M8.40360932,1.76164103 L15.606703,5.87213675 L15.606703,14.0931282 L8.40360932,18.2036239 L1.20051561,14.0931282 L1.20051561,5.87213675 L8.40360932,1.76164103 M8.40360932,0.754989011 L0.400171872,5.36881075 L0.400171872,14.5964542 L8.40360932,19.2102759 L16.4070468,14.5964542 L16.4070468,5.36881075 L8.40360932,0.754989011 L8.40360932,0.754989011 Z"
             id="path153" />
          <path
             d="M23.6101405,1.76164103 L30.8132342,5.87213675 L30.8132342,14.0931282 L23.6101405,18.2036239 L16.4070468,14.0931282 L16.4070468,5.87213675 L23.6101405,1.76164103 M23.6101405,0.754989011 L15.606703,5.36881075 L15.606703,14.5964542 L23.6101405,19.2102759 L31.6135779,14.5964542 L31.6135779,5.36881075 L23.6101405,0.754989011 L23.6101405,0.754989011 Z"
             id="path154" />
          <path
             d="M38.8166717,1.76164103 L46.0197653,5.87213675 L46.0197653,14.0931282 L38.8166717,18.2036239 L31.6135779,14.0931282 L31.6135779,5.87213675 L38.8166717,1.76164103 M38.8166717,0.754989011 L30.8132342,5.36881075 L30.8132342,14.5964542 L38.8166717,19.2102759 L46.8201091,14.5964542 L46.8201091,5.36881075 L38.8166717,0.754989011 L38.8166717,0.754989011 Z"
             id="path155" />
          <path
             d="M54.0232027,1.76164103 L61.2262966,5.87213675 L61.2262966,14.0931282 L54.0232027,18.2036239 L46.8201091,14.0931282 L46.8201091,5.87213675 L54.0232027,1.76164103 M54.0232027,0.754989011 L46.0197653,5.36881075 L46.0197653,14.5964542 L54.0232027,19.2102759 L62.0266402,14.5964542 L62.0266402,5.36881075 L54.0232027,0.754989011 L54.0232027,0.754989011 Z"
             id="path156" />
          <path
             d="M69.2297339,1.76164103 L76.4328276,5.87213675 L76.4328276,14.0931282 L69.2297339,18.2036239 L62.0266402,14.0931282 L62.0266402,5.87213675 L69.2297339,1.76164103 M69.2297339,0.754989011 L61.2262966,5.36881075 L61.2262966,14.5964542 L69.2297339,19.2102759 L77.2331713,14.5964542 L77.2331713,5.36881075 L69.2297339,0.754989011 L69.2297339,0.754989011 Z"
             id="path157" />
          <path
             d="M84.4362651,1.76164103 L91.6393587,5.87213675 L91.6393587,14.0931282 L84.4362651,18.2036239 L77.2331713,14.0931282 L77.2331713,5.87213675 L84.4362651,1.76164103 M84.4362651,0.754989011 L76.4328276,5.36881075 L76.4328276,14.5964542 L84.4362651,19.2102759 L92.4397026,14.5964542 L92.4397026,5.36881075 L84.4362651,0.754989011 L84.4362651,0.754989011 Z"
             id="path158" />
          <path
             d="M99.6427962,1.76164103 L106.845889,5.87213675 L106.845889,14.0931282 L99.6427962,18.2036239 L92.4397026,14.0931282 L92.4397026,5.87213675 L99.6427962,1.76164103 M99.6427962,0.754989011 L91.6393587,5.36881075 L91.6393587,14.5964542 L99.6427962,19.2102759 L107.646233,14.5964542 L107.646233,5.36881075 L99.6427962,0.754989011 L99.6427962,0.754989011 Z"
             id="path159" />
          <path
             d="M114.849328,1.76164103 L122.052421,5.87213675 L122.052421,14.0931282 L114.849328,18.2036239 L107.646233,14.0931282 L107.646233,5.87213675 L114.849328,1.76164103 M114.849328,0.754989011 L106.845889,5.36881075 L106.845889,14.5964542 L114.849328,19.2102759 L122.852764,14.5964542 L122.852764,5.36881075 L114.849328,0.754989011 L114.849328,0.754989011 Z"
             id="path160" />
          <path
             d="M130.055859,1.76164103 L137.258953,5.87213675 L137.258953,14.0931282 L130.055859,18.2036239 L122.852764,14.0931282 L122.852764,5.87213675 L130.055859,1.76164103 M130.055859,0.754989011 L122.052421,5.36881075 L122.052421,14.5964542 L130.055859,19.2102759 L138.059296,14.5964542 L138.059296,5.36881075 L130.055859,0.754989011 L130.055859,0.754989011 Z"
             id="path161" />
          <path
             d="M145.262389,1.76164103 L152.465484,5.87213675 L152.465484,14.0931282 L145.262389,18.2036239 L138.059296,14.0931282 L138.059296,5.87213675 L145.262389,1.76164103 M145.262389,0.754989011 L137.258953,5.36881075 L137.258953,14.5964542 L145.262389,19.2102759 L153.265828,14.5964542 L153.265828,5.36881075 L145.262389,0.754989011 L145.262389,0.754989011 Z"
             id="path162" />
          <path
             d="M160.46892,1.76164103 L167.672015,5.87213675 L167.672015,14.0931282 L160.46892,18.2036239 L153.265828,14.0931282 L153.265828,5.87213675 L160.46892,1.76164103 M160.46892,0.754989011 L152.465484,5.36881075 L152.465484,14.5964542 L160.46892,19.2102759 L168.472359,14.5964542 L168.472359,5.36881075 L160.46892,0.754989011 L160.46892,0.754989011 Z"
             id="path163" />
          <path
             d="M175.675452,1.76164103 L182.878545,5.87213675 L182.878545,14.0931282 L175.675452,18.2036239 L168.472359,14.0931282 L168.472359,5.87213675 L175.675452,1.76164103 M175.675452,0.754989011 L167.672015,5.36881075 L167.672015,14.5964542 L175.675452,19.2102759 L183.67889,14.5964542 L183.67889,5.36881075 L175.675452,0.754989011 L175.675452,0.754989011 Z"
             id="path164" />
          <path
             d="M190.881983,1.76164103 L198.085077,5.87213675 L198.085077,14.0931282 L190.881983,18.2036239 L183.67889,14.0931282 L183.67889,5.87213675 L190.881983,1.76164103 M190.881983,0.754989011 L182.878545,5.36881075 L182.878545,14.5964542 L190.881983,19.2102759 L198.88542,14.5964542 L198.88542,5.36881075 L190.881983,0.754989011 L190.881983,0.754989011 Z"
             id="path165" />
          <path
             d="M206.088514,1.76164103 L213.291608,5.87213675 L213.291608,14.0931282 L206.088514,18.2036239 L198.88542,14.0931282 L198.88542,5.87213675 L206.088514,1.76164103 M206.088514,0.754989011 L198.085077,5.36881075 L198.085077,14.5964542 L206.088514,19.2102759 L214.091952,14.5964542 L214.091952,5.36881075 L206.088514,0.754989011 L206.088514,0.754989011 Z"
             id="path166" />
          <path
             d="M221.295046,1.76164103 L228.498139,5.87213675 L228.498139,14.0931282 L221.295046,18.2036239 L214.091952,14.0931282 L214.091952,5.87213675 L221.295046,1.76164103 M221.295046,0.754989011 L213.291608,5.36881075 L213.291608,14.5964542 L221.295046,19.2102759 L229.298483,14.5964542 L229.298483,5.36881075 L221.295046,0.754989011 L221.295046,0.754989011 Z"
             id="path167" />
          <path
             d="M236.501577,1.76164103 L243.70467,5.87213675 L243.70467,14.0931282 L236.501577,18.2036239 L229.298483,14.0931282 L229.298483,5.87213675 L236.501577,1.76164103 M236.501577,0.754989011 L228.498139,5.36881075 L228.498139,14.5964542 L236.501577,19.2102759 L244.505014,14.5964542 L244.505014,5.36881075 L236.501577,0.754989011 L236.501577,0.754989011 Z"
             id="path168" />
          <path
             d="M251.708108,1.76164103 L258.911202,5.87213675 L258.911202,14.0931282 L251.708108,18.2036239 L244.505014,14.0931282 L244.505014,5.87213675 L251.708108,1.76164103 M251.708108,0.754989011 L243.70467,5.36881075 L243.70467,14.5964542 L251.708108,19.2102759 L259.711545,14.5964542 L259.711545,5.36881075 L251.708108,0.754989011 L251.708108,0.754989011 Z"
             id="path169" />
          <path
             d="M266.914639,1.76164103 L274.117732,5.87213675 L274.117732,14.0931282 L266.914639,18.2036239 L259.711545,14.0931282 L259.711545,5.87213675 L266.914639,1.76164103 M266.914639,0.754989011 L258.911202,5.36881075 L258.911202,14.5964542 L266.914639,19.2102759 L274.918077,14.5964542 L274.918077,5.36881075 L266.914639,0.754989011 L266.914639,0.754989011 Z"
             id="path170" />
          <path
             d="M282.12117,1.76164103 L289.324263,5.87213675 L289.324263,14.0931282 L282.12117,18.2036239 L274.918077,14.0931282 L274.918077,5.87213675 L282.12117,1.76164103 M282.12117,0.754989011 L274.117732,5.36881075 L274.117732,14.5964542 L282.12117,19.2102759 L290.124607,14.5964542 L290.124607,5.36881075 L282.12117,0.754989011 L282.12117,0.754989011 Z"
             id="path171" />
          <path
             d="M297.327702,1.76164103 L304.530795,5.87213675 L304.530795,14.0931282 L297.327702,18.2036239 L290.124607,14.0931282 L290.124607,5.87213675 L297.327702,1.76164103 M297.327702,0.754989011 L289.324263,5.36881075 L289.324263,14.5964542 L297.327702,19.2102759 L305.331138,14.5964542 L305.331138,5.36881075 L297.327702,0.754989011 L297.327702,0.754989011 Z"
             id="path172" />
        </g>
        <polyline
           stroke="#FFF"
           stroke-width="7.89"
           points="0 117.257 0 0 309.627 0 309.627 117.257"
           id="polyline172" />
      </g>
      <polyline
         stroke="#FFF"
         stroke-width="7.89"
         points="32.479 117.257 32.479 0 342.105 0 342.105 117.257"
         id="polyline173" />
    </g>
    <g
       fill-rule="nonzero"
       transform="translate(591.5 14)"
       id="g178">
      <g
         transform="translate(928)"
         id="g176">
        <polygon
           fill="#000"
           points="0 44.171 19 84 300 84 319 44.171"
           opacity=".1"
           id="polygon174" />
        <g
           transform="translate(19)"
           id="g175">
          <path
             id="rect174"
             d="M 0,0 V 7.0566406 C 6.0618605,6.7521051 12.129732,6.5785376 18.197266,6.4375 23.263151,6.3218273 28.329599,6.2720216 33.396484,6.2324219 c 2.157194,0.00679 4.315363,-0.045598 6.472657,-0.037109 0.719197,0.00283 1.43735,0.01259 2.15625,0.033203 1.326194,0.055902 2.651765,0.1472959 3.976562,0.2285156 3.988788,0.2445444 3.740941,4.2739108 -0.248047,4.0292968 -1.282294,-0.07863 -2.564059,-0.166816 -3.847656,-0.222656 -2.824791,-0.0866 -5.652822,0.02112 -8.478516,0.0059 -5.046185,0.03942 -10.091633,0.08991 -15.136718,0.205078 C 12.192486,10.61624 6.0928715,10.788732 0,11.097656 V 84 H 281 V 0 Z m 25.0625,24.755859 h 4.117188 7.351562 c 2.815794,-0.02741 5.628959,-0.0064 8.439453,0.175782 2.713194,0.221499 5.390037,0.728978 8.082031,1.115234 2.436396,0.343151 4.895467,0.472553 7.351563,0.570313 2.764294,0.09016 5.529428,0.111469 8.294922,0.130859 2.662494,0.01573 5.325787,0.01808 7.988281,0.02148 1.689596,0.0019 3.378863,0.0032 5.068359,0.0039 2.950053,0.0012 3.705978,2.191976 2.302735,3.34375 2.919016,0.633348 2.585316,3.923432 -1.027344,3.923828 -1.327799,1.46e-4 -2.656476,-4.12e-4 -3.984375,0 -2.060798,8e-4 -4.122696,0.0025 -6.183594,0.0059 -2.253397,0.0045 -4.506368,0.01267 -6.759765,0.03125 -3.130097,0.02741 -6.259275,0.06549 -9.388672,0.136719 -3.763696,0.08841 -7.527973,0.231148 -11.292969,0.230468 H 35.408203 25.550781 19.447266 c -3.996396,0 -3.996396,-4.037109 0,-4.037109 h 6.103515 9.857422 10.013672 c 2.978426,4.6e-5 5.956163,-0.08863 8.933594,-0.169922 -0.625217,-0.06466 -1.252097,-0.107202 -1.875,-0.195312 -2.588896,-0.372318 -5.163489,-0.857217 -7.771485,-1.082031 -2.722594,-0.179961 -5.448087,-0.191429 -8.175781,-0.167969 h -7.351562 -4.117188 -0.002 c -3.996392,0 -3.996392,-4.03711 0,-4.03711 z" />
          <path
             id="path174"
             d="m 139.40039,22.378906 c 0,0 -1.2,3.279554 -1.5,4.273438 -0.8,-0.596331 -3.20078,-2.28475 -4.30078,-2.980469 0.2,1.391438 0.60117,3.577277 0.70117,4.074219 -0.2,-0.09939 -1.40117,-1.193174 -3.20117,-1.988282 1,1.192662 1.69961,2.98161 2.09961,4.373047 2.6,-1.391437 5.70039,-2.285156 8.90039,-2.285156 1.7,0 3.40039,0.297759 4.90039,0.695313 0.2,-1.490827 0.49922,-3.379826 1.19922,-4.671875 -1.5,1.192661 -2.49961,2.484817 -2.59961,2.683593 0,-0.397553 -0.19883,-2.583613 -0.29883,-4.173828 -0.6,0.695719 -3.1,3.4794 -3.5,3.876953 -0.4,-0.59633 -2.40039,-3.876953 -2.40039,-3.876953 z m 2.79883,6.361328 c -2.9,0 -5.6,0.696011 -8,1.888672 1.3,0.09939 2.10039,1.191221 2.40039,1.986328 -1,-0.695719 -2.50039,-1.09154 -3.40039,-0.09766 -0.9,0.993884 -0.79844,2.882221 0.10156,4.373047 -2,-0.993884 -2.00078,-3.678212 -1.30078,-4.771484 -2.3,1.689603 -4.2,3.876838 -5.5,6.460937 l 1.90039,0.296875 c -2.1,2.484711 -3.59961,6.758326 -3.59961,8.746094 l 3,-0.894531 c -0.5,1.689603 -0.70039,7.752722 1.09961,10.734375 0,0 2.3,-1.589138 5,-5.664063 1.1,3.677372 0.6,6.758582 0,9.740234 4.8,2.683488 10.29961,1.191963 13.59961,-1.193359 l 0.59961,2.285156 c 3.8,-2.48471 5.90078,-6.062235 6.30078,-10.335937 l 1.40039,1.589844 C 158.00078,47.424518 156.3,42.257193 153,37.585938 l -0.0996,1.09375 L 151.5,37.1875 c 0,0 0.2,-0.09832 0.5,-0.396484 0.1,-0.09939 3.9e-4,-0.796027 -0.59961,-1.292969 -0.6,0.198777 -1.00117,0.496757 -1.20117,0.794922 -0.8,-0.596331 -1.59961,-0.894531 -1.59961,-0.894531 0.1,0.09939 0.99961,1.291899 1.09961,1.689453 0.8,0.695719 1.90156,1.492223 2.60156,2.386718 -0.5,-0.59633 -3.30156,-0.795328 -4.60156,-0.09961 0,0 -1.19844,-1.490491 -2.39844,-2.484375 -0.2,-0.894496 0.59961,-1.591797 0.59961,-1.591797 0,0 -0.79961,-0.09784 -1.59961,0.697266 -1.1,-0.894496 -2.60156,-1.292969 -2.60156,-1.292969 -1.6,0.298165 -2.69922,1.392578 -2.69922,1.392578 0.4,0.198777 0.90078,0.496536 1.30078,0.695313 0.9,0.298165 1.69883,0.197265 2.29883,0.197265 0.5,0 1.09961,0.09961 1.09961,0.09961 0,0 1.10117,0.794992 2.70117,2.583984 -2.5,-0.993884 -5.00078,0.09957 -6.80078,-0.794922 -2,-0.993884 -1.90039,-2.683594 -1.90039,-2.683594 l -1.39844,-0.197265 c 0,0 0.99961,-1.39173 2.59961,-1.888672 l -0.80078,-0.695313 c 1,-0.795107 2.70078,-1.789946 5.30078,-2.1875 0,0 1.19961,0.497897 3.59961,2.1875 0.4,-0.496942 0.5,-1.691406 0.5,-1.691406 1.3,0.397554 3.80078,2.287587 4.80078,3.380859 -0.6,-1.192661 -1.00156,-2.088809 -1.10156,-3.380859 -0.6,-0.59633 -2.09922,-1.788877 -5.19922,-2.583984 0.4,0.993884 0.40039,1.888672 0.40039,1.888672 -0.5,-0.695719 -1.79961,-1.887382 -2.59961,-2.185547 -0.5,-0.09939 -1.10156,-0.09961 -1.60156,-0.09961 z M 164.5,31.720703 v 19.480469 h 12.09961 v -3.578125 h -8.29883 V 31.720703 Z M 91.599609,32.21875 c -1.199998,0 -2.199218,0.893497 -2.199218,2.185547 0,1.192661 0.89922,2.1875 2.199218,2.1875 1.199999,0 2.201172,-0.994839 2.201172,-2.1875 0,-1.192661 -1.001173,-2.185547 -2.201172,-2.185547 z M 32,34.445312 v 16.65625 l 3.800781,-0.09766 v -6.361328 h 2.398438 c 4.099996,0 7.101562,-2.386233 7.101562,-6.560547 0,-1.437228 -0.403385,-2.65038 -1.078125,-3.636719 h -8.814453 z m 3.800781,0.75586 H 38 c 1.899998,0 3.300781,0.992479 3.300781,2.880859 0,1.88838 -1.400783,2.982422 -3.300781,2.982422 h -2.199219 z m 25.5,2.78125 c -4.199996,0 -6.800781,3.181782 -6.800781,6.759766 0,3.975536 2.900395,6.658203 6.900391,6.658203 2.199997,0 4.19922,-0.794551 5.699218,-2.384766 l -2.199218,-2.1875 c -0.999999,0.993884 -2.100002,1.492187 -3.5,1.492187 -1.599999,0 -2.901173,-0.99528 -3.201172,-2.386718 H 67.5 c 0.1,-0.496942 0.09961,-0.992851 0.09961,-1.291016 0,-4.273702 -3.198831,-6.660156 -6.298828,-6.660156 z m 14.398438,0 C 73.299221,37.982422 72.5,39.970703 72.5,39.970703 L 72.099609,38.28125 H 69 v 12.820312 h 3.599609 v -7.552734 c 0,-1.391438 0.699611,-2.285156 2.09961,-2.285156 1.199999,0 2,0.893718 2,2.285156 v 7.552734 h 3.601562 v -7.552734 c 0,-1.391438 0.699611,-2.285156 2.09961,-2.285156 1.199998,0 2,0.893718 2,2.285156 l -0.09961,7.552734 h 3.59961 v -8.148437 c 0,-2.882264 -1.899612,-4.970703 -4.59961,-4.970703 -0.999999,0 -2.500782,0.09968 -3.800781,1.888672 l -0.09961,0.09961 -0.09961,-0.09961 c -0.899999,-1.29205 -2.101564,-1.888672 -3.601562,-1.888672 z m 25.800781,0 c -4.199996,0 -6.800781,3.181782 -6.800781,6.759766 0,3.975536 2.900394,6.658203 6.900391,6.658203 2.2,0 4.19961,-0.794551 5.59961,-2.384766 L 105,46.828125 c -1,0.993884 -2.1,1.492187 -3.5,1.492187 -1.599998,0 -2.899219,-0.99528 -3.199219,-2.386718 h 9.398439 c 0.1,-0.496942 0.10156,-0.992851 0.10156,-1.291016 0,-4.273702 -3.20078,-6.660156 -6.30078,-6.660156 z m 82.69922,0.09961 c -4.2,0 -6.79883,3.181783 -6.79883,6.759766 0,3.975537 2.9004,6.658203 6.90039,6.658203 2.2,0 4.19961,-0.893939 5.59961,-2.384766 l -2.20117,-2.1875 c -1,0.993885 -2.1,1.490235 -3.5,1.490235 -1.6,0 -2.89922,-0.993328 -3.19922,-2.384766 h 9.40039 c 0.1,-0.496942 0.0996,-0.99285 0.0996,-1.291015 0,-4.273702 -3.20078,-6.660157 -6.30078,-6.660157 z m 59,0 c -4.2,0 -6.79883,3.181783 -6.79883,6.759766 0,3.975537 2.9004,6.658203 6.90039,6.658203 2.1,0 4.19961,-0.893939 5.59961,-2.384766 l -2.20117,-2.1875 c -1,0.993885 -2.1,1.490235 -3.5,1.490235 -1.6,0 -2.89922,-0.993328 -3.19922,-2.384766 h 9.40039 c 0.1,-0.496942 0.0996,-0.99285 0.0996,-1.291015 0,-4.273702 -3.20078,-6.660157 -6.30078,-6.660157 z m -189.898439,0.09961 c -1.599998,0 -2.700782,0.79562 -3.300781,1.988281 L 49.599609,38.28125 H 46.5 v 12.820312 h 3.599609 v -6.458984 c 0,-1.987768 1.200393,-3.082031 2.900391,-3.082031 0.499999,0 0.900782,2.21e-4 1.300781,0.09961 V 38.28125 c -0.299999,-0.09939 -0.7,-0.09961 -1,-0.09961 z m 62.798829,0 c -1.6,0 -2.69883,0.79562 -3.29883,1.988281 l -0.40039,-1.888672 h -3.09961 v 12.820312 h 3.59961 v -6.458984 c 0,-1.987768 1.20039,-3.082031 2.90039,-3.082031 0.5,0 0.89883,2.21e-4 1.29883,0.09961 V 38.28125 c -0.3,-0.09939 -0.7,-0.09961 -1,-0.09961 z m 82.09961,0 c -3.4,0 -6.39844,2.982563 -6.39844,6.560547 0,3.677371 2.99844,6.757812 6.39844,6.757812 1.7,0 3.2,-0.795399 4,-1.888672 l 0.40039,1.589844 h 3.09961 V 38.380859 h -3.09961 l -0.40039,1.689453 c -0.8,-1.192661 -2.1,-1.888671 -4,-1.888671 z m 15.40039,0 c -3.6,0 -6.59961,2.783787 -6.59961,6.560547 0,3.776759 2.8,6.757812 6.5,6.757812 1.4,0 2.59922,-0.396962 3.69922,-1.490234 v 0.894531 c 0,1.88838 -1.19883,3.179687 -3.79883,3.179687 -1.6,0 -2.90039,-0.794957 -3.90039,-1.689453 l -2,2.683594 c 1.6,1.490826 3.49922,2.384766 6.19922,2.384766 2,0 3.60078,-0.695348 4.80078,-1.589844 1.6,-1.192661 2.30078,-2.882256 2.30078,-5.267578 v -12.22461 h -3.10156 l -0.39844,1.589844 c -0.8,-1.093272 -2.20117,-1.789062 -3.70117,-1.789062 z M 89.699219,38.28125 v 12.820312 h 3.601562 V 38.28125 Z M 222.5,38.380859 v 6.857422 c 0,4.671256 3.50078,6.261719 6.30078,6.261719 2.8,0 6.29883,-1.491075 6.29883,-6.261719 V 38.380859 H 231.5 v 6.558594 c 0,2.087157 -1.19922,3.181641 -2.69922,3.181641 -1.7,0 -2.70117,-0.995096 -2.70117,-3.181641 v -6.558594 z m -74.69922,2.484375 c 1.1,0.894496 2.09961,1.19336 2.09961,1.19336 v 2.285156 c -0.8,0.596331 -3.39961,2.782982 -5.09961,2.683594 -1,-1.88838 -1.90039,-3.578125 -1.90039,-3.578125 0,0 2.70039,-2.285819 4.90039,-2.583985 z m 5,0.09961 c 0.8,1.88838 0.99961,4.175189 0.0996,5.666015 -0.5,-0.993884 -1.10117,-1.59139 -1.70117,-2.287109 v -2.285156 c 0,0 0.70156,-0.398031 1.60156,-1.09375 z m -91.601561,0.09961 c 1.499998,0 2.7,0.893718 3,2.285156 h -6 c 0.299999,-1.391438 1.500001,-2.285156 3,-2.285156 z m 40.201171,0 c 1.5,0 2.7,0.893718 3,2.285156 h -5.999999 c 0.299999,-1.391438 1.500001,-2.285156 2.999999,-2.285156 z m 82.69922,0 c 1.5,0 2.7,0.993107 3,2.285156 h -6 c 0.3,-1.391438 1.5,-2.285156 3,-2.285156 z m 59,0 c 1.4,0 2.6,0.993107 3,2.285156 h -6 c 0.3,-1.391438 1.5,-2.285156 3,-2.285156 z m -44.19922,0.298828 c 1.9,0 3.29883,1.391138 3.29883,3.378907 0,1.88838 -1.39883,3.378906 -3.29883,3.378906 -2,0 -3.40039,-1.490526 -3.40039,-3.378906 0,-1.987769 1.50039,-3.378907 3.40039,-3.378907 z m 15.19922,0 c 1.9,0 3.40039,1.391138 3.40039,3.378907 0,1.88838 -1.50039,3.378906 -3.40039,3.378906 -1.9,0 -3.40039,-1.490526 -3.40039,-3.378906 0,-1.987769 1.50039,-3.378907 3.40039,-3.378907 z M 149.5,46.728516 h 1.69922 c 0.7,0.795107 0.90039,1.789062 0.90039,1.789062 -0.3,1.88838 -1.39961,3.081183 -2.09961,3.578125 0.1,-1.391438 -0.30078,-2.583984 -0.30078,-2.583984 -0.5,0.59633 -1.89922,1.193801 -2.69922,1.392578 -0.4,-0.695719 -1.19922,-2.1875 -1.19922,-2.1875 1.4,0 3.69922,-1.988281 3.69922,-1.988281 z" />
        </g>
      </g>
      <polygon
         fill="#000"
         points="0 44.171 19 84 300 84 319 44.171"
         opacity=".1"
         id="polygon176" />
      <g
         transform="translate(19)"
         id="g177">
        <path
           id="rect176"
           d="m 0,0 v 11.546875 c 7.3960091,0.655594 14.794456,1.28826 22.197266,1.867187 19.65811,1.514659 39.342829,2.662162 59.037109,3.580079 7.837104,0.351425 15.678303,0.627224 23.519535,0.867187 3.31245,0.101371 3.20896,3.447082 -0.10352,3.345703 C 96.791356,20.966502 88.933049,20.690165 81.078125,20.337891 61.348775,19.418229 41.63063,18.267458 21.9375,16.75 14.621633,16.177765 7.3096712,15.552605 0,14.90625 V 84 H 281 V 0 Z m 174.82617,30.105469 c 3.05219,-0.03533 6.10555,-0.0018 9.15821,0.0957 6.5843,0.278891 13.17001,0.531255 19.75781,0.710937 4.3584,0.11251 8.71665,0.178396 13.07617,0.228516 1.80423,0.01997 3.60976,0.03455 5.41406,0.04492 0.50532,-0.01914 1.00215,-0.113331 1.5,-0.193359 0.51416,-0.120067 1.03027,-0.05521 1.54492,0.02148 0.84573,0.142221 1.59814,0.565489 2.35743,0.939453 0.65221,0.324066 1.27337,0.706295 1.86718,1.126953 0.35096,0.25127 0.68141,0.526092 1.00391,0.8125 0.081,0.07147 0.13355,0.158733 0.19922,0.238281 -0.80572,-0.309259 -1.06028,4.909304 -2.40039,2.421875 -0.11868,-0.220316 -0.13593,-0.243309 -0.14453,-0.257812 -0.19601,-0.170723 -0.39374,-0.340725 -0.60547,-0.492188 -0.44254,-0.320945 -0.91305,-0.600286 -1.40039,-0.847656 -0.45053,-0.222511 -0.89454,-0.480902 -1.375,-0.630859 -0.0877,-0.01326 -0.61612,-0.03655 -0.15235,-0.07617 0.12288,-0.0105 -0.49049,0.05268 -0.36718,0.05078 -0.67894,0.107785 -1.35678,0.227675 -2.04688,0.234375 -1.81071,-0.01041 -3.621,-0.02487 -5.43164,-0.04492 -4.37712,-0.05033 -8.75484,-0.115502 -13.13086,-0.228515 -6.59314,-0.179895 -13.18379,-0.433467 -19.77344,-0.712891 -6.00239,-0.193499 -12.00474,-0.128673 -18.00195,0.212891 -5.82936,0.350766 -11.63566,0.930356 -17.43945,1.576172 -2.16963,0.190983 -5.42766,0.484495 -7.5625,0.636718 -6.75454,0.481621 -13.5268,0.627403 -20.29688,0.664063 -13.52811,-0.0015 -27.053247,-0.288192 -40.578123,-0.5625 C 65.506441,35.759452 51.011691,35.465882 36.515625,35.544922 H 17.457031 c -3.314026,0 -3.314026,-3.347656 0,-3.347656 h 19.058594 c 14.520295,-0.07903 29.038862,0.214011 43.554687,0.529296 13.500767,0.273337 27.001878,0.561502 40.505858,0.5625 6.7002,-0.03684 13.40315,-0.178468 20.08789,-0.65625 2.08697,-0.149161 5.35629,-0.446124 7.47656,-0.632812 5.8343,-0.65096 11.67309,-1.228797 17.53321,-1.582031 3.04999,-0.174406 6.10015,-0.277172 9.15234,-0.3125 z m 56.16602,4.417969 c 0.0627,0.109096 0.11793,0.137899 0.1875,0.3125 0.0123,0.03082 0.0524,0.123211 0.0371,0.09375 -0.0724,-0.139977 -0.14803,-0.2734 -0.22461,-0.40625 z" />
        <path
           id="path176"
           d="m 139.37305,21.996094 c 0,0 -1.19521,3.300782 -1.49414,4.300781 -0.79716,-0.599999 -3.18908,-2.300001 -4.28516,-3 0.19929,1.399999 0.59762,3.59961 0.69727,4.099609 -0.19929,-0.1 -1.39586,-1.2 -3.18946,-2 0.99644,1.199999 1.69518,3.000392 2.09375,4.400391 2.59075,-1.399999 5.67858,-2.300781 8.86719,-2.300781 1.69395,0 3.38815,0.299219 4.88281,0.699218 0.19929,-1.499998 0.49781,-3.39922 1.19531,-4.699218 -1.49466,1.199999 -2.49019,2.499219 -2.58984,2.699218 0,-0.399999 -0.19918,-2.59922 -0.29883,-4.199218 -0.59786,0.699999 -3.0897,3.500391 -3.48828,3.90039 -0.39857,-0.599999 -2.39062,-3.90039 -2.39062,-3.90039 z m 2.78906,6.40039 c -2.88968,0 -5.57925,0.700392 -7.9707,1.900391 1.29537,0.1 2.09169,1.200001 2.39062,2 -0.99644,-0.699999 -2.48992,-1.101562 -3.38672,-0.101563 -0.2129,0.237406 -0.36745,0.528148 -0.4707,0.84961 1.94363,-0.07201 3.88668,-0.168208 5.82812,-0.28711 1.02796,-0.726197 2.56527,-1.515269 4.80665,-1.861328 0,0 0.89047,0.470758 2.2246,1.320313 0.61916,-0.05453 1.20785,-0.0997 1.75782,-0.148438 0.0762,-0.36666 0.10156,-0.671875 0.10156,-0.671875 0.32753,0.101139 0.73299,0.298935 1.16992,0.554688 0.85228,-0.0945 1.70605,-0.172943 2.5586,-0.263672 -0.0117,-0.09915 -0.0331,-0.187109 -0.041,-0.291016 -0.59787,-0.599999 -2.09268,-1.79961 -5.18164,-2.599609 0.39858,0.999999 0.39844,1.898437 0.39844,1.898437 -0.49822,-0.699999 -1.79269,-1.899219 -2.58985,-2.199218 -0.49822,-0.1 -1.09748,-0.09961 -1.5957,-0.09961 z M 32.355469,31.296875 v 0.900391 h 4.160156 c 1.949147,-0.01061 3.898576,0.002 5.847656,0.0039 -1.0972,-0.584356 -2.401556,-0.904297 -3.830078,-0.904297 z m 99.642581,0.5 c -0.5588,0.414499 -1.09109,0.861485 -1.59961,1.333984 0.40376,-0.01173 0.80723,-0.02961 1.21094,-0.04297 0.0529,-0.509905 0.18564,-0.970841 0.38867,-1.291016 z m -40.255862,0.09961 c -0.771958,0 -1.428978,0.399937 -1.820313,1.015625 1.220038,0.02374 2.440101,0.04776 3.660156,0.07031 -0.387907,-0.634528 -1.055673,-1.085938 -1.839843,-1.085938 z m 76.427732,1.785157 c -0.76477,0.03459 -1.5303,0.03458 -2.29492,0.07813 -0.49826,0.02998 -0.99425,0.08201 -1.49219,0.115234 v 17.121094 h 12.05664 v -3.59961 h -8.26953 z m -16.83984,1.513671 c -0.59787,0.2 -0.99603,0.500782 -1.19531,0.800782 -0.46534,-0.350252 -0.87292,-0.5671 -1.17969,-0.712891 -0.0859,0.0095 -0.17197,0.01587 -0.25781,0.02539 0.25362,0.323223 0.85417,1.145946 0.93945,1.488281 0.79715,0.699999 1.89233,1.498438 2.58984,2.398437 -0.49822,-0.599999 -3.28861,-0.799608 -4.58398,-0.09961 0,0 -1.1949,-1.500001 -2.39063,-2.5 -0.0868,-0.392126 0.0268,-0.73102 0.16993,-1.005859 -0.40998,0.03571 -0.74255,0.06256 -1.1543,0.09766 -0.004,0.0038 -0.008,0.004 -0.0117,0.0078 -0.003,-0.0025 -0.007,-0.0034 -0.01,-0.0059 -1.20281,0.102474 -2.42087,0.21531 -3.37304,0.283203 -0.47177,0.03364 -0.94409,0.05355 -1.41602,0.08398 0.27941,0.154874 0.56232,0.313916 0.8125,0.439453 0.8968,0.299999 1.69315,0.199218 2.29102,0.199218 0.49822,0 1.09765,0.101563 1.09765,0.101563 0,0 1.09515,0.799611 2.68946,2.599609 -2.4911,-0.999999 -4.9818,0.09922 -6.77539,-0.800781 -1.52226,-0.763845 -1.82148,-1.922521 -1.87891,-2.433594 -1.49809,0.08463 -2.99679,0.155293 -4.49609,0.212891 0.0384,0.07179 0.0557,0.150535 0.0976,0.220703 -0.11775,-0.05909 -0.20644,-0.140659 -0.31054,-0.210937 -1.81375,0.06827 -3.62857,0.101628 -5.44336,0.138672 -0.37053,0.568741 -0.71714,1.158644 -1.02344,1.773437 l 1.89453,0.298828 c -2.09253,2.499998 -3.58789,6.800783 -3.58789,8.800781 l 2.99023,-0.90039 c -0.49822,1.699998 -0.69789,7.800784 1.09571,10.800781 0,0 2.29203,-1.601176 4.98242,-5.701172 1.09608,3.699996 0.59786,6.800784 0,9.800781 4.78291,2.699998 10.26253,1.198826 13.55078,-1.201172 l 0.59766,2.300782 c 3.78647,-2.499998 5.87876,-6.100395 6.27734,-10.400391 l 1.39648,1.599609 c 2.19217,-6.499993 0.49724,-11.698442 -2.79101,-16.398437 l -0.0996,1.099609 -1.39453,-1.5 c 0,0 0.19911,-0.100391 0.49804,-0.40039 0.0996,-0.1 2.1e-4,-0.800782 -0.59765,-1.300782 z m -118.974611,0.34961 v 15.351562 l 3.785156,-0.09961 v -6.400391 h 2.392578 c 4.085405,0 7.074219,-2.399613 7.074219,-6.599609 0,-0.826983 -0.155317,-1.565135 -0.388672,-2.248047 -1.553456,-0.006 -3.106663,-0.0033 -4.660156,-0.002 0.657803,0.486151 1.0625,1.236461 1.0625,2.25 0,1.899998 -1.393873,3 -3.28711,3 h -2.193359 v -5.251953 z m 59.380859,0.75 c 0.0022,6e-6 0.0037,0.002 0.0059,0.002 0.0013,0 0.0026,2e-6 0.0039,0 -0.0033,-6.2e-5 -0.0065,-0.0019 -0.0098,-0.002 z m -30.185547,1.40039 c -4.185049,0 -6.77539,3.200785 -6.77539,6.800782 0,3.999996 2.889239,6.699218 6.875,6.699218 2.192168,0 4.185027,-0.798439 5.679687,-2.398437 l -2.191406,-2.201172 c -0.99644,0.999999 -2.093265,1.5 -3.488281,1.5 -1.594305,0 -2.890521,-1.000392 -3.189453,-2.400391 h 9.267578 c 0.09964,-0.499999 0.09961,-0.998828 0.09961,-1.298828 0,-4.299995 -3.188379,-6.701172 -6.277344,-6.701172 z m 14.347657,0 c -2.391457,0 -3.1875,2 -3.1875,2 L 72.3125,37.996094 h -3.089844 v 12.90039 h 3.587891 v -7.599609 c 0,-1.399999 0.69678,-2.300781 2.091797,-2.300781 1.195728,0 1.99414,0.900782 1.99414,2.300781 v 7.599609 h 3.585938 v -7.599609 c 0,-1.399999 0.698733,-2.300781 2.09375,-2.300781 1.195728,0 1.992187,0.900782 1.992187,2.300781 l -0.09961,7.599609 h 3.587891 v -8.201172 c 0,-2.899997 -1.893596,-5 -4.583985,-5 -0.99644,0 -2.491737,0.100393 -3.787109,1.900391 l -0.09961,0.09961 -0.09961,-0.09961 c -0.896796,-1.299999 -2.09323,-1.900391 -3.58789,-1.900391 z m 25.708982,0 c -4.185047,0 -6.775389,3.200785 -6.775389,6.800782 0,3.999996 2.88924,6.699218 6.874999,6.699218 2.19217,0 4.18506,-0.798439 5.58008,-2.398437 l -2.19141,-2.201172 c -0.99644,0.999999 -2.09326,1.5 -3.48828,1.5 -1.5943,0 -2.890519,-1.000392 -3.189451,-2.400391 h 9.367191 c 0.0996,-0.499999 0.0996,-0.998828 0.0996,-1.298828 0,-4.299995 -3.18838,-6.701172 -6.27735,-6.701172 z m 82.40625,0.101563 c -4.18505,0 -6.77539,3.198832 -6.77539,6.798828 0,3.999996 2.88924,6.701172 6.875,6.701172 2.19217,0 4.18506,-0.900392 5.58008,-2.400391 L 187.5,46.695312 c -0.99644,1 -2.09131,1.5 -3.48633,1.5 -1.5943,0 -2.89052,-0.998438 -3.18945,-2.398437 h 9.36719 c 0.0996,-0.499999 0.0996,-1.000782 0.0996,-1.300781 0,-4.299996 -3.18838,-6.699219 -6.27735,-6.699219 z m 58.78906,0 c -4.18505,0 -6.77539,3.198832 -6.77539,6.798828 0,3.999996 2.88924,6.701172 6.875,6.701172 2.09253,0 4.18507,-0.900392 5.58008,-2.400391 l -2.1914,-2.201172 c -0.99644,1 -2.09327,1.5 -3.48829,1.5 -1.5943,0 -2.88856,-0.998438 -3.1875,-2.398437 h 9.36524 c 0.0996,-0.499999 0.0996,-1.000782 0.0996,-1.300781 0,-4.299996 -3.18838,-6.699219 -6.27735,-6.699219 z m -189.224605,0.09961 c -1.594304,0 -2.689245,0.800002 -3.287109,2 l -0.398438,-1.90039 h -3.089844 v 12.90039 h 3.587891 v -6.5 c 0,-1.999998 1.194723,-3.099609 2.888672,-3.099609 0.49822,0 0.898299,-3.91e-4 1.296875,0.09961 v -3.40039 c -0.298932,-0.1 -0.699115,-0.09961 -0.998047,-0.09961 z m 62.578125,0 c -1.5943,0 -2.6912,0.800002 -3.28906,2 l -0.39844,-1.90039 h -3.08984 v 12.90039 h 3.58789 v -6.5 c 0,-1.999998 1.19667,-3.099609 2.89062,-3.099609 0.49822,0 0.89635,-3.91e-4 1.29492,0.09961 v -3.40039 c -0.29893,-0.1 -0.69716,-0.09961 -0.99609,-0.09961 z m 81.80664,0 c -3.3879,0 -6.37695,2.999613 -6.37695,6.59961 0,3.699996 2.98905,6.800781 6.37695,6.800781 1.69395,0 3.18918,-0.800392 3.98633,-1.900391 l 0.39844,1.59961 h 3.08984 V 38.095703 h -3.08984 l -0.39844,1.701172 c -0.79715,-1.199999 -2.09309,-1.900391 -3.98633,-1.900391 z m 15.3457,0 c -3.58718,0 -6.57617,2.799614 -6.57617,6.59961 0,3.799996 2.78974,6.800781 6.47656,6.800781 1.39502,0 2.59142,-0.400001 3.6875,-1.5 v 0.898437 c 0,1.899999 -1.19636,3.201172 -3.7871,3.201172 -1.59431,0 -2.89028,-0.801172 -3.88672,-1.701172 l -1.99219,2.701172 c 1.5943,1.499999 3.48734,2.400391 6.17773,2.400391 1.99288,0 3.58748,-0.701563 4.78321,-1.601563 1.5943,-1.199998 2.29101,-2.89883 2.29101,-5.298828 V 38.095703 h -3.08789 l -0.39844,1.599609 c -0.79715,-1.099998 -2.19284,-1.798828 -3.6875,-1.798828 z m -123.458981,0.09961 v 12.90039 H 93.4375 v -12.90039 z m 132.328121,0.09961 v 6.900391 c 0,4.699995 3.48732,6.300781 6.27735,6.300781 2.79003,0 6.27734,-1.500786 6.27734,-6.300781 v -6.900391 h -3.58789 v 6.599609 c 0,2.099998 -1.19479,3.201172 -2.68945,3.201172 -1.69395,0 -2.69141,-1.001174 -2.69141,-3.201172 v -6.599609 z m -74.43554,2.5 c 1.09608,0.899999 2.09375,1.201172 2.09375,1.201172 v 2.298828 c -0.79715,0.6 -3.38809,2.801172 -5.08203,2.701172 -0.99644,-1.899998 -1.89453,-3.601563 -1.89453,-3.601563 0,0 2.69064,-2.299609 4.88281,-2.599609 z m 4.98242,0.09961 c 0.79715,1.899999 0.9964,4.201174 0.0996,5.701172 -0.49822,-0.999999 -1.0955,-1.600782 -1.69336,-2.300781 v -2.298828 c 0,0 0.69695,-0.401563 1.59375,-1.101563 z m -91.273438,0.101563 c 1.49466,0 2.689349,0.89883 2.988281,2.298828 h -5.978515 c 0.298932,-1.399998 1.495573,-2.298828 2.990234,-2.298828 z m 40.056638,0 c 1.49466,0 2.69131,0.89883 2.99024,2.298828 h -5.980472 c 0.298932,-1.399998 1.495572,-2.298828 2.990232,-2.298828 z m 82.40625,0 c 1.49466,0 2.68935,0.998829 2.98828,2.298828 h -5.97851 c 0.29893,-1.399998 1.49557,-2.298828 2.99023,-2.298828 z m 58.78906,0 c 1.39502,0 2.59166,0.998829 2.99024,2.298828 h -5.97852 c 0.29894,-1.399998 1.49362,-2.298828 2.98828,-2.298828 z m -44.04296,0.298828 c 1.89323,0 3.28906,1.400393 3.28906,3.400391 0,1.899998 -1.39583,3.40039 -3.28906,3.40039 -1.99288,0 -3.38672,-1.500392 -3.38672,-3.40039 0,-1.999998 1.49348,-3.400391 3.38672,-3.400391 z m 15.14648,0 c 1.89324,0 3.38867,1.400393 3.38867,3.400391 0,1.899998 -1.49543,3.40039 -3.38867,3.40039 -1.89324,0 -3.38867,-1.500392 -3.38867,-3.40039 0,-1.999998 1.49543,-3.400391 3.38867,-3.400391 z m -64.36914,5.400391 h 1.69336 c 0.69751,0.799999 0.89648,1.800781 0.89648,1.800781 -0.29893,1.899998 -1.39428,3.09961 -2.09179,3.599609 0.0996,-1.399998 -0.29883,-2.599609 -0.29883,-2.599609 -0.49822,0.599999 -1.89426,1.198438 -2.69141,1.398437 -0.39857,-0.699999 -1.19531,-2.199218 -1.19531,-2.199218 1.39502,0 3.6875,-2 3.6875,-2 z" />
      </g>
    </g>
    <g
       transform="translate(45.697 115)"
       id="g184">
      <g
         transform="translate(670.803)"
         id="g179">
        <path
           stroke="#FFF"
           stroke-width="5"
           d="M965.07147,2.50006641 L1005.00042,220.462033 L2.93778269,220.462033 L38.2571257,2.52960501 L965.07147,2.50006641 Z"
           id="path178" />
        <path
           stroke="#FFF"
           stroke-width="5"
           d="M747.754858 2.5050774 757.500562 89.2346464 239.67786 89.2346464 247.766856 2.5050774 747.754858 2.5050774ZM295.001085 221.526983C426.053217 300.824339 563.304447 300.824339 706.754778 221.526983"
           id="path179" />
        <ellipse
           cx="496.894"
           cy="149.948"
           fill="#FFF"
           rx="11.261"
           ry="5.796"
           id="ellipse179" />
      </g>
      <g
         transform="translate(189.803 857)"
         id="g181">
        <rect
           width="1959"
           height="6.867"
           y="192.492"
           fill="#FFF"
           id="rect179" />
        <ellipse
           cx="980.458"
           cy="196.138"
           fill="#FFF"
           rx="26.32"
           ry="22.904"
           id="ellipse180" />
        <ellipse
           cx="980.303"
           cy="203.5"
           stroke="#FFF"
           stroke-width="8"
           rx="235.696"
           ry="199.5"
           id="ellipse181" />
      </g>
      <path
         stroke="#FFF"
         stroke-width="4"
         d="M-1.13686838e-13 15C13.3977991 13.4525141 21.3252615 8.77511868 23.7823871.967813758M1360 14.6481183C1352.07463 14.3439934 1347.02401 13.4912544 1344.84815 12.0899012 1337.7042 7.48888652 1337.25601 0 1337.25601 0"
         transform="translate(490.803 3)"
         id="path181" />
      <g
         fill="#FFF"
         id="g183">
        <polygon
           points="491.955 .001 499 0 7.029 1674.992 0 1675"
           id="polygon181" />
        <polygon
           points="1842.58 .005 1849.467 .005 2328.584 1674.991 2321.694 1675.005"
           id="polygon182" />
        <polygon
           points="498.879 .005 1844.078 .005 1844.078 5.054 497.441 5.054"
           id="polygon183" />
      </g>
    </g>
    <rect
       style="fill:#01ba5c;fill-opacity:1"
       id="rect185"
       width="326.55014"
       height="46.253559"
       x="585.31226"
       y="57.734226" />
    <rect
       style="fill:#01ba5c;fill-opacity:1"
       id="rect185-0"
       width="326.55014"
       height="46.253559"
       x="1514.8114"
       y="58.359386" />
  </g>
</svg>
